<svg width="512" height="512" viewBox="0 0 512 512" fill="none" xmlns="http://www.w3.org/2000/svg">
<g clip-path="url(#clip0_125_34)">
<rect width="512" height="512" fill="#2C5282"/>
<path fill-rule="evenodd" clip-rule="evenodd" d="M321.773 102.5L327.229 117.279H337.232H347.234V235.49V353.7H334.504H321.773V336.088C321.773 317.001 320.623 307.686 316.927 296.851C304.073 259.166 265.103 234.828 225.841 239.965C190.39 244.606 162.041 270.197 152.993 305.73C151.964 309.77 151.409 317.541 151.078 332.559L150.612 353.7H138.068H125.524L125.141 326.648C124.718 296.691 124.482 295.204 118.273 283.325C112.057 271.431 99.1223 261.274 85.7599 257.793C82.3182 256.898 76.294 256.404 68.794 256.404H57.1639V305.052V353.7H40.7963H-1V374.5V393.71H71.7129H118.997V407.35V420.989H71.7129H-1V434V447.359H110.359H196.289V460.999V474.639H110.359H-1V495V511.5H256.5H512V495.5V474.639H461.807H433.619V460.999V447.359H461.807H512V434V420.989H378.151H266.306V407.35V393.71H378.151H512V373.5V353.7H452.714H415.433V282.344V210.987L402.02 210.736L388.608 210.484L388.357 197.146L388.105 183.809L422.911 183.469C456.409 183.141 457.908 183.052 462.849 181.091C473.398 176.903 480.366 169.575 483.626 159.24C485.214 154.207 485.45 150.947 485.45 134.024V114.588L466.252 114.342L447.055 114.097L445.193 109.106C442.62 102.204 434.952 94.6066 427.895 91.9668C422.753 90.0427 421.609 90 374.934 90H327.229L321.773 102.5ZM242.92 308.581C246.486 310.111 251.301 315.052 252.61 318.524C253.16 319.981 253.575 328.105 253.575 337.392V353.7H236.298H219.021V337.304C219.021 319.054 219.481 317.007 224.681 312.058C229.525 307.451 236.975 306.03 242.92 308.581ZM226.296 407.35V420.989H196.743H167.191V407.35V393.71H196.743H226.296V407.35ZM373.604 460.999V474.639H309.498H245.391V460.999V447.359H309.498H373.604V460.999Z" fill="#BEE3F8"/>
</g>
<defs>
<clipPath id="clip0_125_34">
<rect width="512" height="512" fill="white"/>
</clipPath>
</defs>
</svg>
