<svg width="92" height="72" viewBox="0 0 92 72" fill="none" xmlns="http://www.w3.org/2000/svg">
<path fill-rule="evenodd" clip-rule="evenodd" d="M52.8611 1.32511C52.2322 1.4963 51.0449 2.05286 50.2225 2.56217C48.8345 3.42164 48.5006 3.77961 45.5611 7.56076C41.8787 12.2974 41.4361 12.6701 39.4924 12.6701C37.9671 12.6701 37.2146 12.268 35.8366 10.7174C34.0137 8.66585 32.5584 8.00587 30.1867 8.15476C27.716 8.3099 26.9845 8.87917 23.4587 13.3907C21.848 15.4518 20.344 17.4066 20.1166 17.7347C19.8052 18.1838 19.334 18.4446 18.208 18.7903C17.3856 19.0428 16.0004 19.7001 15.1297 20.2511C13.1164 21.5247 1.80353 31.9017 1.30994 32.9273C0.656109 34.286 1.07423 36.1298 2.21163 36.9028C2.78736 37.2939 4.5077 37.31 46.0008 37.31C87.494 37.31 89.2143 37.2939 89.79 36.9028C90.9639 36.105 91.3609 34.202 90.6365 32.8457C90.1382 31.9129 78.9507 21.5981 77.1359 20.3983C76.4102 19.9186 75.3416 19.346 74.7611 19.1258C73.7778 18.7526 73.5495 18.5224 71.419 15.7532C68.9097 12.4918 68.5637 12.266 67.7171 13.339C67.0205 14.2214 67.1519 14.8505 68.3829 16.5271L69.4805 18.0222L68.0293 18.2837C64.9274 18.8422 62.8686 19.9627 59.7937 22.766C58.0079 24.3938 57.817 24.5153 57.5079 24.2213C55.8669 22.6597 53.0977 21.6264 50.5743 21.6335C47.5192 21.6424 45.4207 22.5826 42.4827 25.2589C39.727 27.7691 37.8727 27.8939 35.442 25.7336C34.8756 25.2301 34.2172 24.828 33.9595 24.828C33.4562 24.828 32.6321 25.7147 32.6321 26.2561C32.6321 27.7697 35.1558 29.9244 37.5333 30.4411C39.743 30.9212 41.6646 30.1841 44.0786 27.9302C47.3505 24.8748 50.6375 24.1424 53.9753 25.7249C55.795 26.5875 55.9327 26.3263 51.5406 30.3455L47.5817 33.9684L25.972 33.9118L4.36258 33.8551L9.69424 28.9515C12.6267 26.2545 15.6029 23.6779 16.3081 23.2254C19.7102 21.0431 23.7456 20.9426 27.4502 22.9479C28.2282 23.369 28.9498 23.7135 29.0535 23.7135C29.1575 23.7135 29.4511 23.5056 29.706 23.2515C30.1941 22.7649 30.323 21.8187 30.0038 21.0631C29.6653 20.2618 26.8245 18.9385 23.9384 18.2382C23.4306 18.1149 23.451 18.0795 25.6095 15.3174C28.1747 12.0353 28.9373 11.4574 30.6972 11.4616C32.1164 11.4649 32.9143 11.9014 34.2907 13.4275C36.8422 16.2569 39.8111 16.8574 42.7806 15.1447C43.6224 14.659 44.3619 13.8356 46.9862 10.4615C49.5198 7.20413 50.3912 6.22652 51.2507 5.67665C53.9549 3.947 56.4963 3.88615 59.1755 5.48697C59.9866 5.97131 60.8063 6.77439 62.1098 8.36094C64.0393 10.7098 64.4234 10.9324 65.19 10.1459C65.484 9.84429 65.5965 9.49724 65.5965 8.89321C65.5965 8.12557 65.4449 7.87013 63.7249 5.74017C62.1745 3.8204 61.6025 3.2703 60.3915 2.53453C57.9394 1.0445 55.3941 0.635708 52.8611 1.32511ZM19.6485 3.21613C18.754 4.27198 19.4027 6.10504 20.6707 6.10504C21.5187 6.10504 22.0779 5.44082 22.0779 4.43335C22.0779 3.42587 21.5187 2.76166 20.6707 2.76166C20.2724 2.76166 19.8889 2.93217 19.6485 3.21613ZM69.957 3.21613C69.4395 3.82708 69.4395 5.03962 69.957 5.65057C70.8503 6.70507 72.3864 5.93542 72.3864 4.43335C72.3864 3.42587 71.8272 2.76166 70.9792 2.76166C70.581 2.76166 70.1975 2.93217 69.957 3.21613ZM9.44604 7.89688C8.55156 8.95272 9.2003 10.7858 10.4682 10.7858C11.3162 10.7858 11.8754 10.1216 11.8754 9.11409C11.8754 8.10662 11.3162 7.4424 10.4682 7.4424C10.07 7.4424 9.6865 7.61291 9.44604 7.89688ZM75.9378 9.90291C75.4203 10.5139 75.4203 11.7264 75.9378 12.3373C76.831 13.3918 78.3672 12.6222 78.3672 11.1201C78.3672 10.1126 77.808 9.44843 76.96 9.44843C76.5617 9.44843 76.1782 9.61894 75.9378 9.90291ZM73.3539 22.0497C75.2753 22.7208 76.8212 23.9037 81.9732 28.6457C84.7789 31.2281 87.2306 33.4818 87.4215 33.6539C87.7202 33.9231 85.2904 33.9666 69.9417 33.9666H52.1149L57.1055 29.3616C59.8503 26.8289 62.4959 24.4313 62.9847 24.0336C64.1781 23.0627 65.7248 22.2583 67.2064 21.8384C68.7192 21.4095 71.8267 21.5163 73.3539 22.0497ZM53.4768 41.6323C51.72 42.0612 49.86 42.9298 48.4976 43.9578C47.8499 44.4463 45.6244 46.4038 43.5517 48.3077C40.0354 51.5377 39.7592 51.7478 39.4227 51.4492C38.3499 50.497 36.9307 51.7443 37.3808 53.2441C37.4732 53.5519 38.3399 54.5342 39.3462 55.4713L41.1464 57.1474H28.4986C21.5424 57.1474 15.9262 57.0634 16.018 56.9608C16.5592 56.3568 22.788 50.7343 23.6246 50.0949C25.3089 48.8074 26.7214 48.3817 28.91 48.5023C30.4866 48.589 31.002 48.7165 32.1482 49.3034C32.9057 49.6912 33.648 49.9395 33.8193 49.8626C34.4519 49.5784 34.743 49.0586 34.743 48.2134C34.743 47.123 34.3241 46.7042 32.4224 45.8922C30.5042 45.0733 27.6785 44.8761 25.7312 45.425C23.6807 46.003 22.1892 47.1217 16.555 52.3073L11.296 57.1474H9.23477C7.41575 57.1474 7.119 57.2018 6.71002 57.6095C6.12919 58.1883 6.07448 59.3813 6.59832 60.045C6.94802 60.4881 7.18461 60.4908 46.0008 60.4908C84.8171 60.4908 85.0536 60.4881 85.4033 60.045C85.9272 59.3813 85.8725 58.1883 85.2916 57.6095C84.8621 57.1813 84.5984 57.1474 81.6935 57.1474H78.5589L71.6468 50.797C67.8451 47.3043 64.1371 44.0498 63.4067 43.565C61.32 42.1797 59.3097 41.5253 56.8189 41.4206C55.4849 41.3646 54.255 41.4424 53.4768 41.6323ZM3.99301 44.4512C3.74182 44.7477 3.60796 45.1707 3.60796 45.6684C3.60796 46.1662 3.74182 46.5892 3.99301 46.8857C4.36118 47.3203 4.59003 47.3401 9.23689 47.3401C13.8837 47.3401 14.1126 47.3203 14.4808 46.8857C14.732 46.5892 14.8658 46.1662 14.8658 45.6684C14.8658 45.1707 14.732 44.7477 14.4808 44.4512C14.1126 44.0166 13.8837 43.9968 9.23689 43.9968C4.59003 43.9968 4.36118 44.0166 3.99301 44.4512ZM75.2342 44.4512C74.7166 45.0622 74.7166 46.2747 75.2342 46.8857C75.6011 47.319 75.8329 47.3401 80.2142 47.3401C84.5954 47.3401 84.8273 47.319 85.1942 46.8857C85.4454 46.5892 85.5792 46.1662 85.5792 45.6684C85.5792 45.1707 85.4454 44.7477 85.1942 44.4512C84.8273 44.0179 84.5954 43.9968 80.2142 43.9968C75.8329 43.9968 75.6011 44.0179 75.2342 44.4512ZM59.5919 45.2224C61.5323 45.859 62.9819 46.9708 68.601 52.1323L73.9393 57.036L59.804 57.093L45.6685 57.1501L43.9436 55.57C42.995 54.7007 42.2013 53.9228 42.1798 53.8413C42.1269 53.6391 48.7337 47.631 50 46.7299C51.1267 45.9279 52.7798 45.1738 54.0497 44.8823C55.291 44.5974 58.2383 44.7784 59.5919 45.2224ZM21.9352 68.0779C21.684 68.3743 21.5502 68.7973 21.5502 69.2951C21.5502 69.7928 21.684 70.2158 21.9352 70.5123C22.3034 70.9469 22.5322 70.9668 27.1791 70.9668C31.826 70.9668 32.0548 70.9469 32.423 70.5123C32.6742 70.2158 32.808 69.7928 32.808 69.2951C32.808 68.7973 32.6742 68.3743 32.423 68.0779C32.0548 67.6432 31.826 67.6234 27.1791 67.6234C22.5322 67.6234 22.3034 67.6432 21.9352 68.0779ZM46.3859 68.0779C45.8684 68.6888 45.8684 69.9013 46.3859 70.5123C47.2791 71.5668 48.8153 70.7971 48.8153 69.2951C48.8153 68.2876 48.2561 67.6234 47.4081 67.6234C47.0098 67.6234 46.6264 67.7939 46.3859 68.0779ZM57.6437 68.0779C57.1262 68.6888 57.1262 69.9013 57.6437 70.5123C58 70.9329 58.2526 70.9668 61.0406 70.9668C63.8287 70.9668 64.0813 70.9329 64.4375 70.5123C64.6887 70.2158 64.8226 69.7928 64.8226 69.2951C64.8226 68.7973 64.6887 68.3743 64.4375 68.0779C64.0813 67.6573 63.8287 67.6234 61.0406 67.6234C58.2526 67.6234 58 67.6573 57.6437 68.0779ZM69.7811 68.0779C69.2636 68.6888 69.2636 69.9013 69.7811 70.5123C70.6744 71.5668 72.2105 70.7971 72.2105 69.2951C72.2105 68.2876 71.6513 67.6234 70.8033 67.6234C70.4051 67.6234 70.0216 67.7939 69.7811 68.0779Z" fill="#2C5282" stroke="#2C5282" stroke-width="2"/>
</svg>
