<svg width="90" height="88" viewBox="0 0 90 88" fill="none" xmlns="http://www.w3.org/2000/svg">
<path fill-rule="evenodd" clip-rule="evenodd" d="M73.5381 44.4764L66.2431 45.944L66.2205 51.9924L66.198 58.0406L71.8016 65.0573L77.4052 72.074L80.7229 72.0785L84.0405 72.0831L86.9851 67.6668L89.9297 63.2504V56.1095V48.9688L85.4478 45.98C82.9829 44.3362 80.9362 42.9953 80.8995 43C80.8629 43.0048 77.5503 43.6692 73.5381 44.4764ZM78.8476 46.3092C78.8433 46.3937 78.4182 48.1241 77.9028 50.1544L76.9658 53.8458L72.9008 54.8682L68.8359 55.8907V52.0026V48.1146L73.6479 47.1438C76.2946 46.6099 78.5489 46.169 78.6577 46.1642C78.7935 46.1581 78.853 46.2035 78.8476 46.3092ZM84.5171 48.5236L87.2929 50.3755V56.4175V62.4594L84.9635 65.9529L82.634 69.4464H81.0084H79.3828V62.2827V55.1189L80.4496 50.8522C81.2294 47.7335 81.5467 46.5969 81.6288 46.6285C81.6906 46.6522 82.9903 47.5049 84.5171 48.5236ZM54.6523 49.8942C51.7094 50.8795 49.2788 51.7086 49.2509 51.7365C49.2229 51.7645 50.8 53.3875 52.7553 55.3434L56.3107 58.8995H58.2015H60.0924L61.9367 57.0536L63.781 55.2078L62.002 51.6484C61.0235 49.6907 60.1734 48.092 60.1129 48.0958C60.0524 48.0997 57.5951 48.9089 54.6523 49.8942ZM59.6953 53.0108L60.5265 54.6808L59.7392 55.4718L58.9519 56.2628H58.2038H57.4557L55.7624 54.5711L54.069 52.8794L56.3328 52.1171C57.5779 51.6978 58.6568 51.3516 58.7303 51.3479C58.8187 51.3433 59.1459 51.9071 59.6953 53.0108ZM76.7461 61.8108V67.0073L73.3167 62.7207C71.4305 60.3631 69.9107 58.4102 69.9394 58.3811C69.9679 58.352 71.5013 57.9463 73.3467 57.4794C75.1922 57.0125 76.712 56.6269 76.7241 56.6224C76.7361 56.618 76.7461 58.9528 76.7461 61.8108ZM58.1132 64.247L50.9502 67.1173L47.945 71.6386C46.2498 74.1893 44.9664 76.2038 45.0007 76.2604C45.0342 76.3156 47.0186 78.9776 49.4104 82.176L53.7593 87.9913H63.8359H73.9124L75.4334 81.903L76.9545 75.8145L71.1725 68.5875C67.9923 64.6126 65.3648 61.3641 65.3334 61.3685C65.302 61.3729 62.0529 62.6683 58.1132 64.247ZM62.1468 70.328C61.5758 73.1816 61.0793 75.5645 61.0435 75.6234C60.825 75.9837 54.4757 84.3878 54.4221 84.3878C54.3656 84.3878 48.2707 76.2903 48.1998 76.121C48.1857 76.0871 49.1791 74.5381 50.4074 72.6786L52.6407 69.2977L57.816 67.2228C60.6623 66.0816 63.0349 65.1461 63.0881 65.1438C63.1477 65.1413 62.7842 67.143 62.1468 70.328ZM69.352 70.5218C71.1951 72.8294 72.7031 74.7378 72.7031 74.7625C72.7031 74.7874 70.7314 74.8077 68.3217 74.8077H63.9403L64.8202 70.4077C65.6544 66.236 65.7079 66.0161 65.8504 66.167C65.9331 66.2546 67.5088 68.2143 69.352 70.5218ZM72.8406 81.3775L71.8571 85.3106L64.4573 85.3331L57.0574 85.3556L60.0239 81.4L62.9905 77.4444H68.4073H73.8241L72.8406 81.3775Z" fill="#2C5282"/>
<path d="M6 82.5172L84.5171 4.00001" stroke="#2C5282" stroke-width="3" stroke-linecap="round"/>
<path fill-rule="evenodd" clip-rule="evenodd" d="M32.6008 0.0722383C22.34 0.422131 13.9588 2.54205 8.5196 6.16323C6.77058 7.32779 4.90044 9.01107 3.81833 10.3949C0.903179 14.123 -0.352603 18.6461 0.084829 23.8422C0.365991 27.1819 1.29025 30.8768 2.75811 34.5284C2.97819 35.076 3.15828 35.5744 3.15828 35.636C3.15828 35.6977 2.99656 36.0949 2.79889 36.5188C2.17759 37.8511 1.25342 40.2004 0.736274 41.7621C0.261313 43.1966 0.243208 43.284 0.343843 43.6562C0.555923 44.4401 1.35828 44.9169 2.12029 44.7117C2.72796 44.5481 2.99788 44.1905 3.37756 43.0463C3.87643 41.5431 4.33311 40.3353 4.92866 38.9445L5.46189 37.6993L6.3096 38.0952C9.89492 39.7701 13.4541 40.813 17.0889 41.2539C18.4688 41.4213 21.4728 41.4445 22.7139 41.2972C30.3027 40.3971 35.7152 36.1651 38.2935 29.1156C39.0096 27.1578 39.4018 25.3454 39.8057 22.1283C41.0442 12.2621 42.7063 5.5255 44.551 2.89581C44.7501 2.61193 44.9358 2.23945 44.9635 2.06815C45.0561 1.498 44.7085 0.812453 44.1912 0.544914C43.8232 0.354631 41.5691 0.173049 38.2944 0.0696895C35.3351 -0.0236504 35.4133 -0.0236503 32.6008 0.0722383ZM38.6569 3.00673C38.6356 3.02791 37.6106 3.5549 36.379 4.17787C32.7703 6.00301 28.7641 8.38309 25.7556 10.4891C24.9632 11.0439 24.2949 11.4779 24.2707 11.4536C24.1923 11.3751 24.4408 9.81887 24.656 9.04121C24.771 8.62558 24.8656 8.1333 24.8662 7.94724C24.8683 7.28191 24.4447 6.74709 23.7675 6.56015C23.1668 6.3943 22.3554 6.80308 22.1101 7.3952C21.656 8.49155 21.2668 10.8772 21.2624 12.5922L21.2593 13.8226L20.2345 14.6576C17.8855 16.5714 14.672 19.6195 12.451 22.0404L11.6044 22.9633L11.6002 22.1722C11.5892 20.1233 11.9824 17.7935 12.7511 15.353C12.9903 14.5934 13.0063 14.4728 12.9135 14.1279C12.7035 13.3481 11.9105 12.8725 11.1582 13.075C10.558 13.2367 10.2605 13.6035 9.94572 14.5697C8.73502 18.2871 8.39981 22.0626 8.97338 25.5212L9.07692 26.1457L8.67886 26.6638C8.0929 27.4265 6.35407 30.0219 5.6672 31.1591C5.33875 31.7029 5.04397 32.1478 5.01215 32.1478C4.98034 32.1478 4.80183 31.6847 4.6155 31.1185C2.72875 25.3858 2.4381 20.5789 3.73774 16.6018C5.68293 10.6493 11.5474 6.45143 20.7405 4.43117C24.2273 3.66503 27.1812 3.28824 31.7667 3.0251C32.5124 2.98221 38.6977 2.96577 38.6569 3.00673ZM39.7339 6.84984C38.6896 10.3175 37.8274 14.7421 37.082 20.4584C36.3721 25.9025 35.9998 27.3847 34.6642 30.0824C32.3237 34.81 28.349 37.5665 22.7614 38.3371C21.492 38.5121 18.8672 38.5183 17.4367 38.3496C14.8716 38.0471 12.338 37.4021 9.75007 36.3928C8.43145 35.8784 6.84968 35.1315 6.84968 35.0232C6.84968 34.5879 10.9725 28.1928 11.2531 28.1928C11.3031 28.1928 11.8653 28.349 12.5026 28.5399C15.3058 29.3799 17.6609 29.7581 20.5735 29.8359C22.5815 29.8895 24.5051 29.7694 24.9939 29.5601C25.6452 29.281 26.021 28.4998 25.8226 27.8378C25.6911 27.3988 25.1643 26.9052 24.743 26.8261C24.5722 26.7941 23.9844 26.8116 23.4368 26.8651C20.8089 27.1216 17.5658 26.8346 14.5752 26.0807C12.9641 25.6746 13.0158 25.8482 14.1274 24.5768C16.1346 22.2808 18.9184 19.5772 21.4835 17.4325C22.1119 16.907 22.6941 16.4187 22.7772 16.3471C22.9123 16.231 23.0432 16.255 24.0077 16.573C25.8118 17.1677 27.7431 17.4741 29.6319 17.4656C31.6099 17.4566 32.0428 17.3367 32.4996 16.671C32.6692 16.4238 32.6991 16.2861 32.6709 15.8824C32.6277 15.2654 32.3619 14.8729 31.8264 14.6361C31.4746 14.4805 31.3169 14.4675 30.412 14.5197C29.8519 14.552 28.9516 14.5387 28.4114 14.4902C27.3817 14.3977 25.8316 14.131 25.8375 14.0473C25.8545 13.8039 31.4636 10.1859 34.2276 8.63551C35.6559 7.83421 40.0104 5.60153 40.0559 5.64705C40.0729 5.66402 39.9279 6.20525 39.7339 6.84984Z" fill="#2C5282"/>
</svg>
