<svg width="87" height="91" viewBox="0 0 87 91" fill="none" xmlns="http://www.w3.org/2000/svg">
<path fill-rule="evenodd" clip-rule="evenodd" d="M65.498 39.1077C64.5522 39.3794 57.9342 46.5484 54.5122 51.0085C48.4919 58.8548 45.7023 65.1286 46.0251 70.095C46.3689 75.3843 48.1483 79.8981 51.3687 83.6508C54.5356 87.3412 58.681 89.6761 63.4864 90.476C64.7054 90.6789 68.0609 90.6409 69.3399 90.4097C75.3332 89.3262 80.4214 85.6579 83.5424 80.1704C85.2087 77.2405 86.1899 73.8195 86.4321 70.095C86.8469 63.7132 82.0858 55.0668 72.1802 44.2128C69.2447 40.9964 67.4438 39.2502 66.9089 39.1017C66.4141 38.9642 65.9909 38.966 65.498 39.1077ZM67.4524 45.4448C69.8096 47.8569 73.0051 51.5963 75.1358 54.436C79.46 60.1987 81.8239 64.9453 82.1167 68.4525C82.2477 70.0208 81.8152 73.0304 81.1907 74.8969C80.7352 76.2581 79.639 78.426 78.8177 79.5903C77.9106 80.8758 75.9386 82.8361 74.7188 83.6645C70.0635 86.8266 64.4537 87.205 59.4541 84.6943C57.4487 83.6872 55.0355 81.5689 53.6395 79.5903C52.8181 78.426 51.722 76.2581 51.2665 74.8969C50.642 73.0304 50.2095 70.0208 50.3405 68.4525C50.7379 63.6923 55.0396 56.522 62.5777 48.0551C63.9233 46.5436 66.1209 44.2582 66.2286 44.2582C66.264 44.2582 66.8148 44.7922 67.4524 45.4448ZM54.9887 66.6063C54.4386 66.8562 53.9241 67.4815 53.8035 68.0467C53.6773 68.6385 53.8319 70.5225 54.1002 71.6635C54.7617 74.4749 55.9103 76.779 57.6675 78.8194C58.5086 79.796 58.8818 80.0117 59.7307 80.0119C60.8994 80.0123 61.7607 79.3151 61.8781 78.2739C61.9607 77.5408 61.7456 76.9715 61.0988 76.2112C59.3438 74.1479 58.3686 71.8514 58.0605 69.0554C57.9351 67.9185 57.8775 67.6939 57.6164 67.3233C57.0261 66.4853 55.9199 66.1834 54.9887 66.6063Z" fill="#2C5282"/>
<line x1="4" y1="81.5171" x2="82.5171" y2="3" stroke="#2C5282" stroke-width="3" stroke-linecap="round"/>
<path fill-rule="evenodd" clip-rule="evenodd" d="M32.6008 0.0722383C22.34 0.422131 13.9588 2.54205 8.5196 6.16323C6.77058 7.32779 4.90044 9.01107 3.81833 10.3949C0.903179 14.123 -0.352603 18.6461 0.084829 23.8422C0.365991 27.1819 1.29025 30.8768 2.75811 34.5284C2.97819 35.076 3.15828 35.5744 3.15828 35.636C3.15828 35.6977 2.99656 36.0949 2.79889 36.5188C2.17759 37.8511 1.25342 40.2004 0.736274 41.7621C0.261313 43.1966 0.243208 43.284 0.343843 43.6562C0.555923 44.4401 1.35828 44.9169 2.12029 44.7117C2.72796 44.5481 2.99788 44.1905 3.37756 43.0463C3.87643 41.5431 4.33311 40.3353 4.92866 38.9445L5.46189 37.6993L6.3096 38.0952C9.89492 39.7701 13.4541 40.813 17.0889 41.2539C18.4688 41.4213 21.4728 41.4445 22.7139 41.2972C30.3027 40.3971 35.7152 36.1651 38.2935 29.1156C39.0096 27.1578 39.4018 25.3454 39.8057 22.1283C41.0442 12.2621 42.7063 5.5255 44.551 2.89581C44.7501 2.61193 44.9358 2.23945 44.9635 2.06815C45.0561 1.498 44.7085 0.812453 44.1912 0.544914C43.8232 0.354631 41.5691 0.173049 38.2944 0.0696895C35.3351 -0.0236504 35.4133 -0.0236503 32.6008 0.0722383ZM38.6569 3.00673C38.6356 3.02791 37.6106 3.5549 36.379 4.17787C32.7703 6.00301 28.7641 8.38309 25.7556 10.4891C24.9632 11.0439 24.2949 11.4779 24.2707 11.4536C24.1923 11.3751 24.4408 9.81887 24.656 9.04121C24.771 8.62558 24.8656 8.1333 24.8662 7.94724C24.8683 7.28191 24.4447 6.74709 23.7675 6.56015C23.1668 6.3943 22.3554 6.80308 22.1101 7.3952C21.656 8.49155 21.2668 10.8772 21.2624 12.5922L21.2593 13.8226L20.2345 14.6576C17.8855 16.5714 14.672 19.6195 12.451 22.0404L11.6044 22.9633L11.6002 22.1722C11.5892 20.1233 11.9824 17.7935 12.7511 15.353C12.9903 14.5934 13.0063 14.4728 12.9135 14.1279C12.7035 13.3481 11.9105 12.8725 11.1582 13.075C10.558 13.2367 10.2605 13.6035 9.94572 14.5697C8.73502 18.2871 8.39981 22.0626 8.97338 25.5212L9.07692 26.1457L8.67886 26.6638C8.0929 27.4265 6.35407 30.0219 5.6672 31.1591C5.33875 31.7029 5.04397 32.1478 5.01215 32.1478C4.98034 32.1478 4.80183 31.6847 4.6155 31.1185C2.72875 25.3858 2.4381 20.5789 3.73774 16.6018C5.68293 10.6493 11.5474 6.45143 20.7405 4.43117C24.2273 3.66503 27.1812 3.28824 31.7667 3.0251C32.5124 2.98221 38.6977 2.96577 38.6569 3.00673ZM39.7339 6.84984C38.6896 10.3175 37.8274 14.7421 37.082 20.4584C36.3721 25.9025 35.9998 27.3847 34.6642 30.0824C32.3237 34.81 28.349 37.5665 22.7614 38.3371C21.492 38.5121 18.8672 38.5183 17.4367 38.3496C14.8716 38.0471 12.338 37.4021 9.75007 36.3928C8.43145 35.8784 6.84968 35.1315 6.84968 35.0232C6.84968 34.5879 10.9725 28.1928 11.2531 28.1928C11.3031 28.1928 11.8653 28.349 12.5026 28.5399C15.3058 29.3799 17.6609 29.7581 20.5735 29.8359C22.5815 29.8895 24.5051 29.7694 24.9939 29.5601C25.6452 29.281 26.021 28.4998 25.8226 27.8378C25.6911 27.3988 25.1643 26.9052 24.743 26.8261C24.5722 26.7941 23.9844 26.8116 23.4368 26.8651C20.8089 27.1216 17.5658 26.8346 14.5752 26.0807C12.9641 25.6746 13.0158 25.8482 14.1274 24.5768C16.1346 22.2808 18.9184 19.5772 21.4835 17.4325C22.1119 16.907 22.6941 16.4187 22.7772 16.3471C22.9123 16.231 23.0432 16.255 24.0077 16.573C25.8118 17.1677 27.7431 17.4741 29.6319 17.4656C31.6099 17.4566 32.0428 17.3367 32.4996 16.671C32.6692 16.4238 32.6991 16.2861 32.6709 15.8824C32.6277 15.2654 32.3619 14.8729 31.8264 14.6361C31.4746 14.4805 31.3169 14.4675 30.412 14.5197C29.8519 14.552 28.9516 14.5387 28.4114 14.4902C27.3817 14.3977 25.8316 14.131 25.8375 14.0473C25.8545 13.8039 31.4636 10.1859 34.2276 8.63551C35.6559 7.83421 40.0104 5.60153 40.0559 5.64705C40.0729 5.66402 39.9279 6.20525 39.7339 6.84984Z" fill="#2C5282"/>
</svg>
