<svg width="90" height="90" viewBox="0 0 90 90" fill="none" xmlns="http://www.w3.org/2000/svg">
<path fill-rule="evenodd" clip-rule="evenodd" d="M81.3028 45.1724C81.8261 45.4487 81.985 45.8612 81.985 46.9437V47.8487L82.4464 48.0601C83.0157 48.321 83.9014 49.1926 84.1736 49.7598C84.5932 50.6342 84.6196 50.9006 84.6196 54.2636C84.6196 57.6335 84.5936 57.8932 84.1705 58.7605C83.8863 59.3429 83.0128 60.2076 82.4464 60.4671L81.985 60.6786V62.1073C81.985 62.9269 82.0197 63.5361 82.0665 63.5361C82.4381 63.5361 83.647 63.7677 84.2226 63.9492C85.5135 64.3562 86.5605 64.9716 87.5528 65.9069C90.7001 68.8732 90.7887 73.7096 87.7538 76.8796C87.0707 77.593 86.3473 78.1112 85.4064 78.561C84.2085 79.1337 83.5154 79.2743 81.5016 79.3532C79.655 79.4256 79.3459 79.4866 78.5938 79.9273C78.0727 80.2328 77.3387 81.0704 77.0532 81.6855C76.9187 81.9755 76.7267 82.6281 76.6268 83.1357C76.4027 84.2737 76.2462 84.763 75.854 85.5527C74.963 87.3465 73.4289 88.7531 71.5807 89.4708C70.218 89.9999 70.2289 89.9993 60.4845 89.9707C51.7119 89.9449 51.6117 89.9427 50.9514 89.7553C48.6224 89.0945 46.811 87.5746 45.7784 85.4145C45.1985 84.2016 45.0429 83.4774 45.0429 81.9931C45.0429 80.9664 45.0792 80.5858 45.2297 80.0348C45.9227 77.4993 47.9083 75.4381 50.5062 74.557C51.5032 74.2189 52.3943 74.083 53.6126 74.083C54.6573 74.083 55.0853 73.9067 55.3631 73.3621C55.688 72.7253 55.4709 71.9915 54.8578 71.6539C54.5705 71.4957 54.3192 71.4598 53.2008 71.4172C51.2527 71.3428 50.0169 70.9746 48.606 70.0481C46.1835 68.4574 44.8552 65.904 45.0125 63.1406C45.0791 61.9713 45.3277 61.041 45.8579 59.9765C46.6475 58.3918 47.7379 57.3042 49.3556 56.4882L50.2564 56.0337V53.6369C50.2564 51.0722 50.3078 50.6123 50.6829 49.8252C50.977 49.2078 51.8346 48.3451 52.4317 48.0658L52.8932 47.8501V46.9444C52.8932 45.8452 53.051 45.4451 53.594 45.1681C54.0333 44.944 54.3898 44.944 54.829 45.1681C55.3719 45.4451 55.5299 45.8452 55.5299 46.9437V47.8487L55.9913 48.0601C56.5607 48.321 57.4463 49.1926 57.7185 49.7598C58.1182 50.5925 58.1645 50.9654 58.1655 53.3587L58.1666 55.6179L64.1212 55.6468C70.0205 55.6754 70.0823 55.6775 70.7763 55.8768C73.2835 56.5967 75.1088 58.2054 76.1356 60.6C76.3202 61.0305 76.5798 61.541 76.7124 61.7343C77.265 62.5398 78.2663 63.2538 79.0681 63.4142L79.3482 63.4702L79.3479 62.0749L79.3476 60.6796L78.7767 60.3844C77.8029 59.8809 77.0439 58.8656 76.8096 57.753C76.6771 57.1238 76.6771 51.4035 76.8096 50.7743C77.0412 49.6744 77.9328 48.512 78.8868 48.0658L79.3482 47.8501V46.9444C79.3482 45.8452 79.5061 45.4451 80.0491 45.1681C80.4821 44.9472 80.8788 44.9485 81.3028 45.1724ZM80.0491 50.4415C79.8257 50.5554 79.6391 50.7421 79.5252 50.9654C79.3583 51.2927 79.3482 51.4792 79.3482 54.2701C79.3482 57.1716 79.352 57.2347 79.5453 57.5786C79.7653 57.97 80.245 58.2627 80.6666 58.2627C81.1027 58.2627 81.609 57.9518 81.808 57.5618C81.9753 57.234 81.9848 57.0521 81.9813 54.2452C81.9771 50.8969 81.9723 50.8696 81.3176 50.4733C80.8968 50.2186 80.5053 50.2088 80.0491 50.4415ZM53.594 50.4415C53.3707 50.5554 53.184 50.7421 53.0701 50.9654C52.9031 51.2927 52.8932 51.4771 52.8951 54.2381C52.8968 56.9195 52.9109 57.1947 53.0635 57.5307C53.2646 57.9735 53.5598 58.1823 54.0654 58.2394C54.5923 58.2987 55.1182 58.022 55.353 57.5618C55.5202 57.234 55.5297 57.0521 55.5262 54.2452C55.5221 50.8969 55.5172 50.8696 54.8625 50.4733C54.4417 50.2186 54.0502 50.2088 53.594 50.4415ZM57.7286 58.7241C57.4516 59.3166 56.5839 60.1844 55.9913 60.4614L55.5299 60.6772V62.9012C55.5299 64.9567 55.5164 65.1514 55.353 65.472C55.154 65.8619 54.6476 66.1728 54.2115 66.1728C53.7754 66.1728 53.2691 65.8619 53.0701 65.472C52.9066 65.1514 52.8932 64.9567 52.8932 62.9012V60.6772L52.4409 60.4625C51.8957 60.2036 51.1466 59.5379 50.9135 59.1052C50.8202 58.9319 50.6996 58.79 50.6456 58.79C50.4292 58.79 49.4803 59.4944 49.009 60.005C46.8233 62.3727 47.2941 65.9971 50.0246 67.8233C51.0365 68.5002 51.8538 68.7252 53.5963 68.8068C54.6982 68.8584 55.1661 68.9175 55.5446 69.0526C57.7423 69.8377 58.7607 72.3465 57.7541 74.4958C57.3316 75.3976 56.3429 76.2342 55.3101 76.5634C55.1651 76.6096 54.3939 76.6787 53.5963 76.717C51.8754 76.7997 51.0598 77.0228 50.0454 77.6886C49.4337 78.0901 48.7114 78.783 48.5075 79.1641L48.4046 79.3564H51.4434C54.3155 79.3564 54.5012 79.3661 54.829 79.5333C55.219 79.7323 55.5299 80.2386 55.5299 80.6748C55.5299 81.0964 55.2372 81.5761 54.8458 81.7961C54.4992 81.9909 54.4561 81.9931 51.0575 81.9931H47.6197L47.6212 82.2348C47.6243 82.7201 47.8895 83.717 48.1758 84.3197C48.7721 85.5748 49.8902 86.5835 51.2253 87.0706L51.8824 87.3105L60.5836 87.3356C70.027 87.363 69.9177 87.3677 70.9547 86.8819C72.0204 86.3826 73.0196 85.3678 73.5578 84.2381C73.772 83.7885 73.8668 83.4467 74.1253 82.1909L74.166 81.9931H72.0075C70.0177 81.9931 69.8219 81.9793 69.5022 81.8162C69.1122 81.6172 68.8014 81.1109 68.8014 80.6748C68.8014 80.2386 69.1122 79.7323 69.5022 79.5333C69.8277 79.3673 70.0164 79.3564 72.5771 79.3564H75.3053L75.9921 78.6753C77.4486 77.2309 78.8116 76.724 81.2458 76.7212C83.2015 76.719 84.2792 76.3931 85.4297 75.4558C85.8593 75.1058 86.5553 74.2905 86.5553 74.1371C86.5553 74.1073 85.7627 74.083 84.7939 74.083C83.2021 74.083 82.9992 74.0659 82.6858 73.906C82.2958 73.7071 81.985 73.2007 81.985 72.7646C81.985 72.3285 82.2958 71.8222 82.6858 71.6232C83.0056 71.46 83.2013 71.4462 85.2008 71.4462H87.369L87.3069 70.8974C87.0839 68.9269 85.5581 67.1723 83.4791 66.4958C83.1165 66.3779 82.632 66.2576 82.4024 66.2287L81.985 66.1761V66.969C81.985 67.5901 81.9466 67.8369 81.808 68.1087C81.609 68.4987 81.1027 68.8095 80.6666 68.8095C80.2305 68.8095 79.7241 68.4987 79.5252 68.1087C79.3864 67.8365 79.3482 67.5901 79.3482 66.9645C79.3482 66.4012 79.316 66.1586 79.2384 66.1376C79.1779 66.1212 78.9038 66.0658 78.629 66.0143C77.4585 65.7953 76.3411 65.1795 75.3681 64.2172L74.6794 63.5361H72.2642C70.0172 63.5361 69.8249 63.5238 69.5022 63.3592C69.1122 63.1602 68.8014 62.6538 68.8014 62.2177C68.8014 61.7816 69.1122 61.2753 69.5022 61.0763C69.8157 60.9163 70.0186 60.8994 71.6146 60.8994H73.3801L73.1185 60.5192C72.4573 59.5582 71.2851 58.7504 70.102 58.4404C69.5028 58.2834 69.0809 58.272 63.7025 58.2675L57.9444 58.2627L57.7286 58.7241ZM65.4825 61.0806C66.0058 61.3569 66.1646 61.7694 66.1646 62.8519V63.7569L66.6261 63.9683C67.1954 64.2292 68.0811 65.1008 68.3533 65.668C68.7517 66.4983 68.7993 66.8764 68.8003 69.227L68.8014 71.4462H70.9142C72.8584 71.4462 73.0548 71.4604 73.374 71.6232C73.7639 71.8222 74.0748 72.3285 74.0748 72.7646C74.0748 73.2007 73.7639 73.7071 73.374 73.906C73.0534 74.0695 72.8587 74.083 70.8032 74.083H68.5792L68.3634 74.5444C68.0864 75.1369 67.2186 76.0047 66.6261 76.2817L66.1646 76.4975V80.0398C66.1646 83.4166 66.1564 83.5984 65.9877 83.929C65.7887 84.319 65.2824 84.6298 64.8463 84.6298C64.4102 84.6298 63.9038 84.319 63.7048 83.929C63.5362 83.5984 63.5279 83.4162 63.5276 80.0411L63.5273 76.5L62.9564 76.2047C61.9826 75.7012 61.2236 74.6859 60.9893 73.5733C60.8569 72.9446 60.8569 67.3112 60.9893 66.6825C61.2209 65.5826 62.1124 64.4202 63.0665 63.974L63.5279 63.7583V62.8527C63.5279 61.7534 63.6858 61.3533 64.2288 61.0763C64.6618 60.8554 65.0584 60.8567 65.4825 61.0806ZM64.2288 66.3497C64.0054 66.4636 63.8188 66.6503 63.7048 66.8736C63.538 67.2006 63.5279 67.3875 63.5279 70.1344C63.5279 72.9903 63.5319 73.0553 63.725 73.3989C64.0881 74.0451 64.8308 74.2511 65.4806 73.8859C66.1516 73.5088 66.1652 73.4337 66.1609 70.1094C66.1568 66.8102 66.1509 66.7772 65.4973 66.3815C65.0765 66.1268 64.685 66.117 64.2288 66.3497Z" fill="#2C5282"/>
<line x1="5" y1="83.5171" x2="83.5171" y2="5" stroke="#2C5282" stroke-width="3" stroke-linecap="round"/>
<path fill-rule="evenodd" clip-rule="evenodd" d="M28.5381 1.4764L21.2431 2.944L21.2205 8.99237L21.198 15.0406L26.8016 22.0573L32.4052 29.074L35.7229 29.0785L39.0405 29.0831L41.9851 24.6668L44.9297 20.2504V13.1095V5.96875L40.4478 2.98003C37.9829 1.33621 35.9362 -0.00473353 35.8995 1.25599e-05C35.8629 0.00484654 32.5503 0.669212 28.5381 1.4764ZM33.8476 3.30918C33.8433 3.39373 33.4182 5.12412 32.9028 7.1544L31.9658 10.8458L27.9008 11.8682L23.8359 12.8907V9.00265V5.11463L28.6479 4.14379C31.2946 3.60986 33.5489 3.169 33.6577 3.16416C33.7935 3.1581 33.853 3.20354 33.8476 3.30918ZM39.5171 5.52359L42.2929 7.37553V13.4175V19.4594L39.9635 22.9529L37.634 26.4464H36.0084H34.3828V19.2827V12.1189L35.4496 7.85216C36.2294 4.73354 36.5467 3.59694 36.6288 3.62849C36.6906 3.65222 37.9903 4.50493 39.5171 5.52359ZM9.65229 6.89424C6.70945 7.8795 4.27883 8.70857 4.25089 8.73652C4.22294 8.76447 5.79996 10.3875 7.75535 12.3434L11.3107 15.8995H13.2015H15.0924L16.9367 14.0536L18.781 12.2078L17.002 8.64836C16.0235 6.69069 15.1734 5.09204 15.1129 5.09582C15.0524 5.09969 12.5951 5.9089 9.65229 6.89424ZM14.6953 10.0108L15.5265 11.6808L14.7392 12.4718L13.9519 13.2628H13.2038H12.4557L10.7624 11.5711L9.06905 9.87945L11.3328 9.11708C12.5779 8.69784 13.6568 8.35164 13.7303 8.34786C13.8187 8.34329 14.1459 8.90711 14.6953 10.0108ZM31.7461 18.8108V24.0073L28.3167 19.7207C26.4305 17.3631 24.9107 15.4102 24.9394 15.3811C24.9679 15.352 26.5013 14.9463 28.3467 14.4794C30.1922 14.0125 31.712 13.6269 31.7241 13.6224C31.7361 13.618 31.7461 15.9528 31.7461 18.8108ZM13.1132 21.247L5.95016 24.1173L2.94501 28.6386C1.24977 31.1893 -0.0336066 33.2038 0.000670772 33.2604C0.0341571 33.3156 2.01855 35.9776 4.41041 39.176L8.75932 44.9913H18.8359H28.9124L30.4334 38.903L31.9545 32.8145L26.1725 25.5875C22.9923 21.6126 20.3648 18.3641 20.3334 18.3685C20.302 18.3729 17.0529 19.6683 13.1132 21.247ZM17.1468 27.328C16.5758 30.1816 16.0793 32.5645 16.0435 32.6234C15.825 32.9837 9.47572 41.3878 9.42211 41.3878C9.36559 41.3878 3.27073 33.2903 3.1998 33.121C3.18565 33.0871 4.17908 31.5381 5.40744 29.6786L7.64074 26.2977L12.816 24.2228C15.6623 23.0816 18.0349 22.1461 18.0881 22.1438C18.1477 22.1413 17.7842 24.143 17.1468 27.328ZM24.352 27.5218C26.1951 29.8294 27.7031 31.7378 27.7031 31.7625C27.7031 31.7874 25.7314 31.8077 23.3217 31.8077H18.9403L19.8202 27.4077C20.6544 23.236 20.7079 23.0161 20.8504 23.167C20.9331 23.2546 22.5088 25.2143 24.352 27.5218ZM27.8406 38.3775L26.8571 42.3106L19.4573 42.3331L12.0574 42.3556L15.0239 38.4L17.9905 34.4444H23.4073H28.8241L27.8406 38.3775Z" fill="#2C5282"/>
</svg>
