<svg width="87" height="91" viewBox="0 0 87 91" fill="none" xmlns="http://www.w3.org/2000/svg">
<path fill-rule="evenodd" clip-rule="evenodd" d="M65.498 39.1077C64.5522 39.3794 57.9342 46.5484 54.5122 51.0085C48.4919 58.8548 45.7023 65.1286 46.0251 70.095C46.3689 75.3843 48.1483 79.8981 51.3687 83.6508C54.5356 87.3412 58.681 89.6761 63.4864 90.476C64.7054 90.6789 68.0609 90.6409 69.3399 90.4097C75.3332 89.3262 80.4214 85.6579 83.5424 80.1704C85.2087 77.2405 86.1899 73.8195 86.4321 70.095C86.8469 63.7132 82.0858 55.0668 72.1802 44.2128C69.2447 40.9964 67.4438 39.2502 66.9089 39.1017C66.4141 38.9642 65.9909 38.966 65.498 39.1077ZM67.4524 45.4448C69.8096 47.8569 73.0051 51.5963 75.1358 54.436C79.46 60.1987 81.8239 64.9453 82.1167 68.4525C82.2477 70.0208 81.8152 73.0304 81.1907 74.8969C80.7352 76.2581 79.639 78.426 78.8177 79.5903C77.9106 80.8758 75.9386 82.8361 74.7188 83.6645C70.0635 86.8266 64.4537 87.205 59.4541 84.6943C57.4487 83.6872 55.0355 81.5689 53.6395 79.5903C52.8181 78.426 51.722 76.2581 51.2665 74.8969C50.642 73.0304 50.2095 70.0208 50.3405 68.4525C50.7379 63.6923 55.0396 56.522 62.5777 48.0551C63.9233 46.5436 66.1209 44.2582 66.2286 44.2582C66.264 44.2582 66.8148 44.7922 67.4524 45.4448ZM54.9887 66.6063C54.4386 66.8562 53.9241 67.4815 53.8035 68.0467C53.6773 68.6385 53.8319 70.5225 54.1002 71.6635C54.7617 74.4749 55.9103 76.779 57.6675 78.8194C58.5086 79.796 58.8818 80.0117 59.7307 80.0119C60.8994 80.0123 61.7607 79.3151 61.8781 78.2739C61.9607 77.5408 61.7456 76.9715 61.0988 76.2112C59.3438 74.1479 58.3686 71.8514 58.0605 69.0554C57.9351 67.9185 57.8775 67.6939 57.6164 67.3233C57.0261 66.4853 55.9199 66.1834 54.9887 66.6063Z" fill="#2C5282"/>
<line x1="4" y1="81.5171" x2="82.5171" y2="3" stroke="#2C5282" stroke-width="3" stroke-linecap="round"/>
<path fill-rule="evenodd" clip-rule="evenodd" d="M28.5381 1.4764L21.2431 2.944L21.2205 8.99237L21.198 15.0406L26.8016 22.0573L32.4052 29.074L35.7229 29.0785L39.0405 29.0831L41.9851 24.6668L44.9297 20.2504V13.1095V5.96875L40.4478 2.98003C37.9829 1.33621 35.9362 -0.00473353 35.8995 1.25599e-05C35.8629 0.00484654 32.5503 0.669212 28.5381 1.4764ZM33.8476 3.30918C33.8433 3.39373 33.4182 5.12412 32.9028 7.1544L31.9658 10.8458L27.9008 11.8682L23.8359 12.8907V9.00265V5.11463L28.6479 4.14379C31.2946 3.60986 33.5489 3.169 33.6577 3.16416C33.7935 3.1581 33.853 3.20354 33.8476 3.30918ZM39.5171 5.52359L42.2929 7.37553V13.4175V19.4594L39.9635 22.9529L37.634 26.4464H36.0084H34.3828V19.2827V12.1189L35.4496 7.85216C36.2294 4.73354 36.5467 3.59694 36.6288 3.62849C36.6906 3.65222 37.9903 4.50493 39.5171 5.52359ZM9.65229 6.89424C6.70945 7.8795 4.27883 8.70857 4.25089 8.73652C4.22294 8.76447 5.79996 10.3875 7.75535 12.3434L11.3107 15.8995H13.2015H15.0924L16.9367 14.0536L18.781 12.2078L17.002 8.64836C16.0235 6.69069 15.1734 5.09204 15.1129 5.09582C15.0524 5.09969 12.5951 5.9089 9.65229 6.89424ZM14.6953 10.0108L15.5265 11.6808L14.7392 12.4718L13.9519 13.2628H13.2038H12.4557L10.7624 11.5711L9.06905 9.87945L11.3328 9.11708C12.5779 8.69784 13.6568 8.35164 13.7303 8.34786C13.8187 8.34329 14.1459 8.90711 14.6953 10.0108ZM31.7461 18.8108V24.0073L28.3167 19.7207C26.4305 17.3631 24.9107 15.4102 24.9394 15.3811C24.9679 15.352 26.5013 14.9463 28.3467 14.4794C30.1922 14.0125 31.712 13.6269 31.7241 13.6224C31.7361 13.618 31.7461 15.9528 31.7461 18.8108ZM13.1132 21.247L5.95016 24.1173L2.94501 28.6386C1.24977 31.1893 -0.0336066 33.2038 0.000670772 33.2604C0.0341571 33.3156 2.01855 35.9776 4.41041 39.176L8.75932 44.9913H18.8359H28.9124L30.4334 38.903L31.9545 32.8145L26.1725 25.5875C22.9923 21.6126 20.3648 18.3641 20.3334 18.3685C20.302 18.3729 17.0529 19.6683 13.1132 21.247ZM17.1468 27.328C16.5758 30.1816 16.0793 32.5645 16.0435 32.6234C15.825 32.9837 9.47572 41.3878 9.42211 41.3878C9.36559 41.3878 3.27073 33.2903 3.1998 33.121C3.18565 33.0871 4.17908 31.5381 5.40744 29.6786L7.64074 26.2977L12.816 24.2228C15.6623 23.0816 18.0349 22.1461 18.0881 22.1438C18.1477 22.1413 17.7842 24.143 17.1468 27.328ZM24.352 27.5218C26.1951 29.8294 27.7031 31.7378 27.7031 31.7625C27.7031 31.7874 25.7314 31.8077 23.3217 31.8077H18.9403L19.8202 27.4077C20.6544 23.236 20.7079 23.0161 20.8504 23.167C20.9331 23.2546 22.5088 25.2143 24.352 27.5218ZM27.8406 38.3775L26.8571 42.3106L19.4573 42.3331L12.0574 42.3556L15.0239 38.4L17.9905 34.4444H23.4073H28.8241L27.8406 38.3775Z" fill="#2C5282"/>
</svg>
