<svg width="100" height="41" viewBox="0 0 100 41" fill="none" xmlns="http://www.w3.org/2000/svg">
<path fill-rule="evenodd" clip-rule="evenodd" d="M89.1397 0.569932C88.7641 0.899619 88.2783 1.45821 88.0602 1.81134C87.6791 2.42774 87.6014 2.45821 86.0879 2.58438C85.2213 2.65665 82.3862 3.03165 79.7875 3.41778C75.7022 4.02462 74.693 4.11016 72.3285 4.05001C67.7051 3.93243 63.8535 4.04727 61.4987 4.37286C57.3885 4.94122 56.1539 4.83692 50.8442 3.47208C42.6655 1.36993 37.0221 1.19962 32.5596 2.92052C28.6303 4.43595 25.9397 7.12872 24.3838 11.1031C23.4254 13.5512 21.7281 16.8125 20.6959 18.19C17.3162 22.6998 12.9891 24.9703 7.77307 24.9703C5.86233 24.9703 5.23869 24.7803 5.23869 24.1979C5.23869 23.9309 5.50041 23.743 6.19221 23.5131C8.31701 22.8074 8.54807 21.0783 6.64729 20.1086C3.78401 18.6479 0.455101 20.2274 0.0418195 23.2428C-0.434938 26.7207 3.20569 29.1404 8.86721 29.1082C13.1184 29.0842 16.5348 27.8078 19.8473 25.0063C22.3965 22.8504 24.3674 20.4219 26.1371 17.2563C27.5203 14.7822 28.16 14.1313 29.4967 13.8381C30.3184 13.6576 30.6926 13.6645 31.3129 13.8707C32.0473 14.1149 32.0979 14.1813 32.1549 14.976C32.3137 17.1816 29.9022 21.8936 27.5354 24.0026L26.4301 24.9873L26.3643 26.7854C26.2543 29.7828 27.5897 36.6453 28.6502 38.5342C29.5633 40.1604 30.8301 40.7914 33.1684 40.785C34.8629 40.7801 35.9248 40.5127 36.3543 39.9826C37.1129 39.0461 36.2276 37.8404 34.0071 36.7863C33.2235 36.4145 32.5776 36.0867 32.5715 36.0578C32.5655 36.0291 32.3953 34.8629 32.1934 33.4664C31.8875 31.3516 31.869 30.8621 32.0815 30.5367C32.2219 30.3219 33.2817 29.7529 34.4365 29.2725C37.0254 28.1953 39.1588 26.9412 41.5225 25.1065C45.5641 21.9695 45.353 22.0274 48.1641 23.2906C53.3934 25.6408 57.1403 25.8535 63.7406 24.1746C66.5776 23.4529 66.9481 23.4004 67.8363 23.5934C70.6598 24.207 73.2147 26.6858 78.1863 33.635C81.8735 38.7889 83.159 39.9447 86.0381 40.6945C87.326 41.0301 89.9625 41.0768 91.0209 40.7828C92.4563 40.3842 93.0369 38.7275 92.0776 37.768C91.4881 37.1785 90.6112 36.949 88.0969 36.7264C86.703 36.6027 85.983 36.4502 85.735 36.2258C84.6965 35.2859 82.5893 30.3088 80.192 23.1332C78.8166 19.0168 78.757 18.0897 79.7863 16.8141C80.9334 15.3922 83.8803 14.393 87.0264 14.3592C88.559 14.3426 88.8715 14.4047 90.0627 14.9621C90.793 15.3039 91.8916 15.935 92.5041 16.3643C94.0565 17.4525 94.7606 17.6764 95.3719 17.2758C95.6348 17.1035 96.1549 16.9625 96.5278 16.9625C97.4666 16.9625 98.0457 16.708 98.711 16.0033C99.0242 15.6715 99.3889 15.4 99.5215 15.4C100.245 15.4 99.859 13.5391 98.0715 8.41212C97.7649 7.53184 97.434 7.21544 94.4965 4.99239C92.8541 3.74923 92.8369 3.72755 92.8992 2.95489C93.0893 0.596885 90.7785 -0.868935 89.1397 0.569932Z" fill="#2C5282"/>
</svg>
