<svg width="100" height="61" viewBox="0 0 100 61" fill="none" xmlns="http://www.w3.org/2000/svg">
<path fill-rule="evenodd" clip-rule="evenodd" d="M52.0289 0.0513879C51.9215 0.0935754 51.3502 0.276975 50.7594 0.458811C50.1685 0.640647 48.9644 1.22385 48.0838 1.75471C44.8394 3.71037 43.3746 3.86135 36.8441 2.91233C29.4924 1.84397 25.1816 1.6592 20.4848 2.21155C14.8088 2.87893 11.514 4.39455 7.98592 7.96115C5.1744 10.8033 3.00448 14.4574 1.41541 19.025C0.700376 21.0807 0.672446 21.2567 0.691391 23.6043C0.712681 26.2633 0.973618 27.7738 2.63065 34.8348C3.43866 38.2774 3.54979 39.0192 3.56737 41.0848C3.58592 43.251 3.54471 43.5317 3.02186 44.7893C2.71092 45.5379 1.94315 47.0733 1.31561 48.2014C0.688266 49.3295 0.116587 50.5629 0.0451024 50.9422C-0.142398 51.9369 0.263071 54.4113 1.10565 57.4153L1.83905 60.0301L2.81288 60.1541C4.68417 60.3928 9.69061 60.5707 10.6176 60.4317L11.5521 60.2916L11.4385 59.3309C11.2816 58.0074 10.7154 56.8158 9.83807 55.9637L9.09784 55.2449L9.66502 55.2379C10.5906 55.2266 12.4459 54.7207 13.5596 54.1758C15.024 53.4592 16.633 51.7783 17.4637 50.0971C18.2025 48.6018 18.9166 45.6324 18.9209 44.0375C18.923 43.203 19.0084 43.0039 19.6055 42.4408C21.4736 40.6789 26.743 39.8567 34.6461 40.094C37.1168 40.168 39.8326 40.293 40.6812 40.3713C42.2 40.5117 42.2365 40.528 42.9828 41.3854C43.9057 42.4457 46.2043 47.0104 47.159 49.6783C48.0742 52.236 48.3463 53.4873 48.6029 56.3192C48.7197 57.6082 48.865 58.9926 48.9256 59.3953L49.0359 60.1278H57.4172H65.7984V59.6469C65.7984 58.7613 64.9723 56.9453 64.1769 56.0826C63.7439 55.6127 62.8301 54.8176 62.1463 54.3154C61.0797 53.5322 60.9164 53.3324 60.9967 52.9078C61.0482 52.6356 61.1455 51.9295 61.2129 51.3387C61.2803 50.7479 61.5492 48.8871 61.8103 47.2035C63.2771 37.7512 65.0902 32.4602 67.6982 30.0207C68.8289 28.9633 69.3701 28.768 71.9369 28.4912C75.1652 28.1434 78.4578 27.1533 80.4373 25.9354C81.8113 25.0901 82.7342 24.8846 88.6586 24.1059C95.7955 23.1676 95.7435 23.1809 96.8334 21.9985C98.2213 20.4924 99.3576 18.9047 99.7203 17.9643C100.014 17.2028 100.019 17.0537 99.7625 16.5971C99.41 15.9692 97.6092 15.0541 95.0891 14.2223L93.2273 13.6078L92.4523 12.0143C91.7273 10.5237 91.6066 10.385 90.5844 9.86819C89.9834 9.56409 88.6674 8.98459 87.6601 8.58029L85.8289 7.84494L85.1281 6.00783C84.0767 3.25217 83.6486 2.51057 83.109 2.51057C82.5344 2.51057 81.318 3.38479 80.3996 4.45783L79.6918 5.28459L76.3096 5.15432C67.4178 4.81135 66.3973 4.61604 61.9898 2.41291C60.1637 1.50022 58.1422 0.617209 57.4976 0.450803C56.4025 0.167991 52.4629 -0.119706 52.0289 0.0513879Z" fill="#2C5282"/>
</svg>
