<svg width="116" height="112" viewBox="0 0 116 112" fill="none" xmlns="http://www.w3.org/2000/svg">
<mask id="mask0_12_37" style="mask-type:alpha" maskUnits="userSpaceOnUse" x="0" y="-4" width="116" height="116">
<path d="M116 112H0L116 -4V112Z" fill="#D9D9D9"/>
</mask>
<g mask="url(#mask0_12_37)">
<path fill-rule="evenodd" clip-rule="evenodd" d="M63.0289 45.0514C62.9215 45.0936 62.3502 45.277 61.7594 45.4588C61.1685 45.6406 59.9644 46.2238 59.0838 46.7547C55.8394 48.7104 54.3746 48.8613 47.8441 47.9123C40.4924 46.844 36.1816 46.6592 31.4848 47.2115C25.8088 47.8789 22.514 49.3946 18.9859 52.9612C16.1744 55.8033 14.0045 59.4574 12.4154 64.025C11.7004 66.0807 11.6724 66.2567 11.6914 68.6043C11.7127 71.2633 11.9736 72.7738 13.6306 79.8348C14.4387 83.2774 14.5498 84.0192 14.5674 86.0848C14.5859 88.251 14.5447 88.5317 14.0219 89.7893C13.7109 90.5379 12.9431 92.0733 12.3156 93.2014C11.6883 94.3295 11.1166 95.5629 11.0451 95.9422C10.8576 96.9369 11.2631 99.4113 12.1056 102.415L12.839 105.03L13.8129 105.154C15.6842 105.393 20.6906 105.571 21.6176 105.432L22.5521 105.292L22.4385 104.331C22.2816 103.007 21.7154 101.816 20.8381 100.964L20.0978 100.245L20.665 100.238C21.5906 100.227 23.4459 99.7207 24.5596 99.1758C26.024 98.4592 27.633 96.7783 28.4637 95.0971C29.2025 93.6018 29.9166 90.6324 29.9209 89.0375C29.923 88.203 30.0084 88.0039 30.6055 87.4408C32.4736 85.6789 37.743 84.8567 45.6461 85.094C48.1168 85.168 50.8326 85.293 51.6812 85.3713C53.2 85.5117 53.2365 85.528 53.9828 86.3854C54.9057 87.4457 57.2043 92.0104 58.159 94.6783C59.0742 97.236 59.3463 98.4873 59.6029 101.319C59.7197 102.608 59.865 103.993 59.9256 104.395L60.0359 105.128H68.4172H76.7984V104.647C76.7984 103.761 75.9723 101.945 75.1769 101.083C74.7439 100.613 73.8301 99.8176 73.1463 99.3154C72.0797 98.5322 71.9164 98.3324 71.9967 97.9078C72.0482 97.6356 72.1455 96.9295 72.2129 96.3387C72.2803 95.7479 72.5492 93.8871 72.8103 92.2035C74.2771 82.7512 76.0902 77.4602 78.6982 75.0207C79.8289 73.9633 80.3701 73.768 82.9369 73.4912C86.1652 73.1434 89.4578 72.1533 91.4373 70.9354C92.8113 70.0901 93.7342 69.8846 99.6586 69.1059C106.795 68.1676 106.744 68.1809 107.833 66.9985C109.221 65.4924 110.358 63.9047 110.72 62.9643C111.014 62.2028 111.019 62.0537 110.762 61.5971C110.41 60.9692 108.609 60.0541 106.089 59.2223L104.227 58.6078L103.452 57.0143C102.727 55.5237 102.607 55.385 101.584 54.8682C100.983 54.5641 99.6674 53.9846 98.6601 53.5803L96.8289 52.8449L96.1281 51.0078C95.0767 48.2522 94.6486 47.5106 94.109 47.5106C93.5344 47.5106 92.318 48.3848 91.3996 49.4578L90.6918 50.2846L87.3096 50.1543C78.4178 49.8113 77.3973 49.616 72.9898 47.4129C71.1637 46.5002 69.1422 45.6172 68.4976 45.4508C67.4025 45.168 63.4629 44.8803 63.0289 45.0514Z" fill="#2C5282"/>
</g>
<mask id="mask1_12_37" style="mask-type:alpha" maskUnits="userSpaceOnUse" x="0" y="-4" width="116" height="116">
<path d="M0 -4H116L58 54L0 112V-4Z" fill="#D9D9D9"/>
</mask>
<g mask="url(#mask1_12_37)">
<path fill-rule="evenodd" clip-rule="evenodd" d="M22.9821 10.8036C23.5417 11.2685 24.2654 12.0561 24.5905 12.554C25.1583 13.4231 25.2741 13.4661 27.5292 13.644C28.8204 13.7459 33.0448 14.2746 36.9168 14.8191C43.0039 15.6747 44.5076 15.7953 48.0306 15.7105C54.9196 15.5447 60.6584 15.7067 64.1672 16.1657C70.2913 16.9671 72.1308 16.8201 80.0424 14.8956C92.2286 11.9316 100.637 11.6915 107.286 14.1179C113.141 16.2547 117.15 20.0515 119.468 25.6554C120.896 29.1072 123.425 33.7056 124.963 35.648C129.999 42.0067 136.446 45.2082 144.218 45.2082C147.065 45.2082 147.995 44.9402 147.995 44.119C147.995 43.7425 147.605 43.4776 146.574 43.1535C143.408 42.1585 143.064 39.7204 145.896 38.3531C150.162 36.2935 155.122 38.5206 155.738 42.7723C156.448 47.6762 151.024 51.088 142.588 51.0426C136.254 51.0087 131.163 49.209 126.228 45.2588C122.429 42.2191 119.493 38.7949 116.856 34.3313C114.795 30.843 113.842 29.9251 111.85 29.5117C110.626 29.2573 110.068 29.2669 109.144 29.5577C108.05 29.9019 107.974 29.9956 107.889 31.1161C107.653 34.2261 111.246 40.8699 114.772 43.8436L116.419 45.2321L116.517 47.7674C116.681 51.9938 114.692 61.6699 113.111 64.3332C111.751 66.6261 109.863 67.5159 106.379 67.5068C103.854 67.4999 102.272 67.1229 101.632 66.3755C100.502 65.055 101.821 63.355 105.13 61.8687C106.297 61.3444 107.26 60.8823 107.269 60.8415C107.278 60.801 107.531 59.1567 107.832 57.1876C108.288 54.2057 108.315 53.5156 107.999 53.0568C107.79 52.7539 106.21 51.9516 104.49 51.2742C100.632 49.7554 97.4535 47.9871 93.9317 45.4001C87.9097 40.977 88.2243 41.0586 84.0357 42.8398C76.244 46.1536 70.6612 46.4535 60.8266 44.0862C56.5996 43.0686 56.0475 42.9946 54.724 43.2667C50.5171 44.1319 46.7103 47.6269 39.3025 57.4253C33.8087 64.6923 31.8932 66.3221 27.6034 67.3793C25.6844 67.8524 21.756 67.9182 20.179 67.5038C18.0403 66.9417 17.1751 64.6058 18.6046 63.2528C19.4829 62.4217 20.7896 62.0981 24.5358 61.7842C26.6128 61.6099 27.6855 61.3948 28.055 61.0784C29.6024 59.7532 32.7421 52.7354 36.3141 42.6178C38.3634 36.8137 38.4522 35.5064 36.9185 33.7078C35.2094 31.703 30.8185 30.2941 26.1309 30.2465C23.8473 30.223 23.3816 30.3106 21.6067 31.0966C20.5186 31.5785 18.8817 32.4683 17.969 33.0736C15.656 34.6081 14.6069 34.9237 13.696 34.3589C13.3043 34.116 12.5294 33.9171 11.9738 33.9171C10.5749 33.9171 9.71204 33.5583 8.72084 32.5647C8.25406 32.0968 7.71072 31.714 7.51312 31.714C6.43492 31.714 7.01025 29.0901 9.67363 21.8611C10.1305 20.6199 10.6235 20.1738 15.0004 17.0393C17.4475 15.2864 17.4731 15.2558 17.3803 14.1664C17.0972 10.8416 20.5401 8.7748 22.9821 10.8036Z" fill="#2C5282"/>
</g>
</svg>
