<svg width="64" height="80" viewBox="0 0 64 80" fill="none" xmlns="http://www.w3.org/2000/svg">
<path fill-rule="evenodd" clip-rule="evenodd" d="M22.91 0.18124C17.5485 0.547052 11.6485 1.44193 7.85979 2.46371C4.3143 3.42011 1.48794 5.09877 0.500604 6.83491L0.0711565 7.59022L0.0155227 39.6355C-0.0274221 64.4092 0.0141573 71.8683 0.198039 72.5072C0.544721 73.71 2.36773 75.376 4.26804 76.2261C8.33979 78.0478 15.1538 79.3149 23.831 79.864C27.812 80.1158 39.8246 79.9981 43.2112 79.6741C54.9982 78.5462 61.6261 76.4189 63.4733 73.1707L63.9028 72.4154L63.9532 52.8576C64.0004 34.5033 63.9824 33.2612 63.6603 32.6702C63.1448 31.7243 62.3796 31.2777 61.3003 31.2923C60.7631 31.2997 60.1615 31.4435 59.841 31.6409C58.677 32.3584 58.7299 31.5068 58.7299 49.5475V66.0889L58.1931 66.2684C57.2118 66.5963 56.6945 66.9625 56.3439 67.5774C55.6525 68.7903 56.0642 70.0888 57.3984 70.9027L58.2097 71.3974L57.1521 71.8503C47.1598 76.1293 16.8093 76.1275 6.81428 71.8472L5.74944 71.391L6.50351 70.963C7.84495 70.2012 8.31696 68.7824 7.63003 67.5774C7.27945 66.9625 6.76216 66.5963 5.78087 66.2684L5.24406 66.0889V40.0992C5.24406 25.8048 5.31823 14.1095 5.40861 14.1095C5.49919 14.1095 6.09222 14.2793 6.72624 14.4868C9.98068 15.5518 15.8212 16.5493 21.934 17.0841C25.5896 17.404 38.4076 17.4025 42.04 17.0819C48.2041 16.5379 53.2683 15.7025 56.7421 14.6569C57.7424 14.3557 58.5987 14.1095 58.6454 14.1095C58.6918 14.1095 58.7303 16.1547 58.7307 18.6546C58.7313 22.8385 58.7617 23.2463 59.1125 23.7875C60.1754 25.4276 62.7077 25.2517 63.6584 23.4715C63.9664 22.895 63.9998 22.1147 64 15.5081C64.0004 10.3289 63.9315 7.96246 63.765 7.42788C63.4099 6.28876 61.5225 4.5921 59.7059 3.7795C55.7017 1.9879 48.9834 0.71894 40.5394 0.159203C37.1847 -0.0631853 26.2911 -0.0495961 22.91 0.18124ZM39.5056 5.11511C47.1096 5.57238 53.9314 6.75356 57.1683 8.17328L58.2419 8.64432L57.0707 9.1642C50.3299 12.1564 32.0321 13.3018 17.8347 11.62C13.312 11.0844 8.25156 9.91291 6.41528 8.97671L5.73207 8.62834L6.80569 8.16538C9.98126 6.79579 16.9094 5.56742 23.886 5.13678C27.5705 4.90944 35.893 4.89787 39.5056 5.11511ZM26.9353 62.9046C26.0323 63.3231 25.5468 64.1354 25.546 65.2291C25.5452 66.023 25.63 66.2026 26.303 66.836L27.061 67.5489H31.987H36.9129L37.6709 66.836C38.344 66.2026 38.4287 66.023 38.4279 65.2291C38.4271 64.1211 37.9333 63.3108 37.007 62.8973C35.9918 62.444 27.9164 62.4499 26.9353 62.9046ZM17.5419 63.3481C11.1078 64.1662 10.1242 64.6105 10.1242 66.6984C10.1242 67.3722 10.2419 67.6622 10.7258 68.1808C11.4683 68.9763 12.3081 69.2165 13.5685 68.9943C14.0897 68.9023 16.0673 68.6289 17.9633 68.3868C21.6896 67.911 22.1907 67.7357 22.698 66.7299C23.317 65.5028 22.936 64.1655 21.778 63.5014C21.0909 63.1072 19.8037 63.0605 17.5419 63.3481ZM42.1959 63.5014C41.038 64.1655 40.6569 65.5028 41.2759 66.7299C41.7833 67.7357 42.2844 67.911 46.0106 68.3868C47.9066 68.6289 49.8842 68.9023 50.4054 68.9943C51.3842 69.1669 52.3264 69.0175 52.8828 68.6012C53.9082 67.8337 54.1635 66.3253 53.4516 65.2416C52.8447 64.3176 51.8185 64.0347 46.8349 63.4179C43.8569 63.0491 42.9559 63.0655 42.1959 63.5014Z" fill="#2C5282"/>
</svg>
