<svg width="80" height="81" viewBox="0 0 80 81" fill="none" xmlns="http://www.w3.org/2000/svg">
<path fill-rule="evenodd" clip-rule="evenodd" d="M64.5773 0.306669C65.5081 0.798215 65.7907 1.53194 65.7907 3.45763V5.06735L66.6115 5.44351C67.6243 5.90754 69.1997 7.458 69.6839 8.46689C70.4303 10.0224 70.4772 10.4962 70.4772 16.4786C70.4772 22.4731 70.4311 22.9351 69.6785 24.4778C69.1728 25.5139 67.6191 27.052 66.6115 27.5137L65.7907 27.8898V30.4314C65.7907 31.8893 65.8524 32.9729 65.9357 32.9729C66.5968 32.9729 68.7471 33.3848 69.771 33.7077C72.0674 34.4317 73.9298 35.5265 75.6951 37.1903C81.2936 42.4667 81.4512 51.07 76.0526 56.7089C74.8375 57.9779 73.5506 58.8997 71.8768 59.6999C69.746 60.7186 68.5131 60.9688 64.9308 61.1092C61.646 61.2379 61.0963 61.3464 59.7583 62.1304C58.8313 62.6737 57.5257 64.1637 57.0179 65.2579C56.7785 65.7739 56.4371 66.9347 56.2593 67.8376C55.8606 69.862 55.5823 70.7323 54.8846 72.1371C53.2997 75.3279 50.5707 77.83 47.2831 79.1067C44.859 80.0479 44.8784 80.047 27.5447 79.996C11.9395 79.9502 11.7613 79.9461 10.5867 79.6128C6.4437 78.4374 3.2216 75.7338 1.38471 71.8913C0.353149 69.7337 0.0762711 68.4455 0.0762711 65.8051C0.0762711 63.9787 0.140839 63.3018 0.408661 62.3216C1.64143 57.8113 5.1734 54.1447 9.79478 52.5775C11.5682 51.976 13.1534 51.7342 15.3206 51.7342C17.1789 51.7342 17.9403 51.4207 18.4345 50.4518C19.0124 49.3191 18.6262 48.0138 17.5355 47.4133C17.0244 47.1319 16.5774 47.0679 14.588 46.9921C11.1226 46.8598 8.9244 46.2049 6.41461 44.5567C2.1053 41.7272 -0.257523 37.1851 0.0223312 32.2693C0.140686 30.1893 0.582977 28.5344 1.5262 26.6409C2.93064 23.8219 4.87041 21.8873 7.74792 20.4358L9.35044 19.6274V15.3637C9.35044 10.8016 9.4419 9.98343 10.109 8.58321C10.6321 7.48505 12.1578 5.95038 13.22 5.45367L14.0408 5.06985V3.45888C14.0408 1.50348 14.3216 0.791804 15.2875 0.299008C16.0689 -0.0996693 16.703 -0.0996693 17.4844 0.299008C18.4501 0.791804 18.7311 1.50348 18.7311 3.45763V5.06735L19.5519 5.44351C20.5647 5.90754 22.1402 7.458 22.6244 8.46689C23.3353 9.94825 23.4177 10.6116 23.4195 14.8689L23.4214 18.8877L34.0137 18.939C44.5077 18.9899 44.6176 18.9937 45.8521 19.3481C50.3121 20.6287 53.5591 23.4905 55.3855 27.7501C55.714 28.5158 56.1757 29.4239 56.4116 29.7678C57.3945 31.2006 59.1757 32.4707 60.6021 32.756L61.1003 32.8556L61.0997 30.3737L61.0992 27.8917L60.0836 27.3665C58.3515 26.4708 57.0013 24.6648 56.5845 22.6856C56.3487 21.5663 56.3487 11.3908 56.5845 10.2716C56.9965 8.31508 58.5824 6.24727 60.2795 5.45367L61.1003 5.06985V3.45888C61.1003 1.50348 61.3811 0.791804 62.347 0.299008C63.1173 -0.0938846 63.8229 -0.0915394 64.5773 0.306669ZM62.347 9.67965C61.9497 9.88227 61.6177 10.2143 61.4151 10.6116C61.1182 11.1938 61.1003 11.5254 61.1003 16.4902C61.1003 21.6514 61.1071 21.7636 61.4509 22.3754C61.8422 23.0716 62.6955 23.5922 63.4455 23.5922C64.2213 23.5922 65.122 23.0393 65.4759 22.3456C65.7735 21.7624 65.7903 21.4389 65.7841 16.4458C65.7767 10.4897 65.7681 10.4412 64.6035 9.73625C63.855 9.28316 63.1586 9.26565 62.347 9.67965ZM15.2875 9.67965C14.8902 9.88227 14.5581 10.2143 14.3555 10.6116C14.0584 11.1938 14.0409 11.5219 14.0442 16.4332C14.0473 21.203 14.0723 21.6925 14.3438 22.2902C14.7015 23.0779 15.2266 23.4493 16.1261 23.5508C17.0634 23.6563 17.9988 23.1642 18.4164 22.3456C18.7139 21.7624 18.7308 21.4389 18.7245 16.4458C18.7172 10.4897 18.7086 10.4412 17.544 9.73625C16.7954 9.28316 16.099 9.26565 15.2875 9.67965ZM22.6423 24.413C22.1496 25.4671 20.606 27.0107 19.5519 27.5035L18.7311 27.8873V31.8435C18.7311 35.4999 18.7072 35.8463 18.4164 36.4165C18.0624 37.1102 17.1617 37.6632 16.3859 37.6632C15.6101 37.6632 14.7094 37.1102 14.3555 36.4165C14.0647 35.8463 14.0408 35.4999 14.0408 31.8435V27.8873L13.2362 27.5054C12.2664 27.0449 10.9339 25.8606 10.5193 25.091C10.3532 24.7826 10.1387 24.5303 10.0427 24.5303C9.65781 24.5303 7.96977 25.7834 7.13145 26.6916C3.24349 30.9034 4.08086 37.3507 8.93801 40.5992C10.738 41.8032 12.1918 42.2034 15.2915 42.3487C17.2516 42.4405 18.084 42.5455 18.7574 42.786C22.6666 44.1824 24.4783 48.6453 22.6877 52.4685C21.9361 54.0728 20.1773 55.5608 18.3402 56.1465C18.0823 56.2286 16.7103 56.3516 15.2915 56.4198C12.2303 56.5668 10.7794 56.9637 8.97506 58.148C7.88691 58.8622 6.60207 60.0948 6.23936 60.7727L6.05627 61.1148H11.4619C16.5709 61.1148 16.9012 61.132 17.4844 61.4295C18.1781 61.7835 18.7311 62.6842 18.7311 63.46C18.7311 64.21 18.2105 65.0633 17.5143 65.4546C16.8976 65.8012 16.821 65.8051 10.7754 65.8051H4.66012L4.66278 66.2351C4.66825 67.0983 5.1401 68.8717 5.64931 69.9437C6.71011 72.1765 8.69896 73.9707 11.0738 74.8373L12.2428 75.264L27.7209 75.3087C44.5193 75.3573 44.3249 75.3657 46.1695 74.5016C48.0651 73.6134 49.8426 71.8081 50.8001 69.7986C51.1811 68.9988 51.3496 68.3909 51.8096 66.1569L51.882 65.8051H48.0423C44.5027 65.8051 44.1545 65.7806 43.5857 65.4904C42.892 65.1365 42.339 64.2358 42.339 63.46C42.339 62.6842 42.892 61.7835 43.5857 61.4295C44.1648 61.1342 44.5005 61.1148 49.0556 61.1148H53.9085L55.1303 59.9031C57.7211 57.3339 60.1457 56.4322 64.4758 56.4272C67.9548 56.4232 69.8717 55.8435 71.9184 54.1763C72.6826 53.5537 73.9205 52.1033 73.9205 51.8305C73.9205 51.7775 72.5106 51.7342 70.7874 51.7342C67.9559 51.7342 67.5949 51.7038 67.0373 51.4194C66.3436 51.0655 65.7907 50.1648 65.7907 49.389C65.7907 48.6132 66.3436 47.7125 67.0373 47.3586C67.6063 47.0684 67.9543 47.0438 71.5111 47.0438H75.368L75.2576 46.0675C74.861 42.5624 72.1467 39.4412 68.4485 38.2378C67.8036 38.028 66.9417 37.8141 66.5333 37.7626L65.7907 37.6691V39.0795C65.7907 40.1844 65.7225 40.6234 65.4759 41.1068C65.122 41.8005 64.2213 42.3535 63.4455 42.3535C62.6697 42.3535 61.769 41.8005 61.4151 41.1068C61.1682 40.6226 61.1003 40.1844 61.1003 39.0716C61.1003 38.0695 61.043 37.6379 60.9049 37.6005C60.7973 37.5714 60.3097 37.4728 59.821 37.3813C57.7388 36.9917 55.751 35.8962 54.0203 34.1846L52.7952 32.9729H48.499C44.5018 32.9729 44.1598 32.951 43.5857 32.6582C42.892 32.3042 42.339 31.4035 42.339 30.6277C42.339 29.8519 42.892 28.9512 43.5857 28.5973C44.1434 28.3127 44.5043 28.2826 47.3433 28.2826H50.4839L50.0187 27.6062C48.8425 25.8968 46.7573 24.4598 44.6526 23.9084C43.5868 23.6291 42.8364 23.6088 33.2689 23.6008L23.0262 23.5922L22.6423 24.413ZM36.4353 28.6049C37.3662 29.0965 37.6487 29.8302 37.6487 31.7559V33.3656L38.4695 33.7418C39.4823 34.2058 41.0578 35.7563 41.542 36.7652C42.2507 38.2421 42.3353 38.9147 42.3372 43.0962L42.339 47.0438H46.0976C49.5559 47.0438 49.9053 47.069 50.473 47.3586C51.1667 47.7125 51.7197 48.6132 51.7197 49.389C51.7197 50.1648 51.1667 51.0655 50.473 51.4194C49.9028 51.7103 49.5564 51.7342 45.8999 51.7342H41.9438L41.56 52.555C41.0672 53.609 39.5236 55.1526 38.4695 55.6454L37.6487 56.0293V62.3305C37.6487 68.3373 37.634 68.6606 37.334 69.2488C36.98 69.9425 36.0793 70.4955 35.3036 70.4955C34.5278 70.4955 33.6271 69.9425 33.2731 69.2488C32.9731 68.6608 32.9584 68.3367 32.9578 62.3327L32.9573 56.0336L31.9417 55.5085C30.2096 54.6128 28.8594 52.8067 28.4426 50.8275C28.2071 49.7092 28.2071 39.6882 28.4426 38.5698C28.8545 36.6134 30.4405 34.5455 32.1376 33.7519L32.9584 33.3681V31.7572C32.9584 29.8018 33.2392 29.0901 34.2051 28.5973C34.9754 28.2044 35.681 28.2067 36.4353 28.6049ZM34.2051 37.9779C33.8078 38.1805 33.4757 38.5126 33.2731 38.9099C32.9764 39.4915 32.9584 39.8239 32.9584 44.7103C32.9584 49.7905 32.9654 49.906 33.3089 50.5173C33.9549 51.6668 35.276 52.0333 36.4319 51.3836C37.6256 50.7128 37.6497 50.5793 37.6422 44.6659C37.6348 38.797 37.6243 38.7384 36.4616 38.0345C35.713 37.5814 35.0167 37.5639 34.2051 37.9779Z" fill="#2C5282"/>
</svg>
