<svg width="98" height="94" viewBox="0 0 98 94" fill="none" xmlns="http://www.w3.org/2000/svg">
<path fill-rule="evenodd" clip-rule="evenodd" d="M85.6008 49.0722C75.34 49.4221 66.9588 51.5421 61.5196 55.1632C59.7706 56.3278 57.9004 58.0111 56.8183 59.3949C53.9032 63.123 52.6474 67.6461 53.0848 72.8422C53.366 76.1819 54.2902 79.8768 55.7581 83.5284C55.9782 84.076 56.1583 84.5744 56.1583 84.636C56.1583 84.6977 55.9966 85.0949 55.7989 85.5188C55.1776 86.8511 54.2534 89.2004 53.7363 90.7621C53.2613 92.1966 53.2432 92.284 53.3438 92.6562C53.5559 93.4401 54.3583 93.9169 55.1203 93.7117C55.728 93.5481 55.9979 93.1905 56.3776 92.0463C56.8764 90.5431 57.3331 89.3353 57.9287 87.9445L58.4619 86.6993L59.3096 87.0952C62.8949 88.7701 66.4541 89.813 70.0889 90.2539C71.4688 90.4213 74.4728 90.4445 75.7139 90.2972C83.3027 89.3971 88.7152 85.1651 91.2935 78.1156C92.0096 76.1578 92.4018 74.3454 92.8057 71.1283C94.0442 61.2621 95.7063 54.5255 97.551 51.8958C97.7501 51.6119 97.9358 51.2394 97.9635 51.0681C98.0561 50.498 97.7085 49.8125 97.1912 49.5449C96.8232 49.3546 94.5691 49.173 91.2944 49.0697C88.3351 48.9763 88.4133 48.9763 85.6008 49.0722ZM91.6569 52.0067C91.6356 52.0279 90.6106 52.5549 89.379 53.1779C85.7703 55.003 81.7641 57.3831 78.7556 59.4891C77.9631 60.0439 77.2949 60.4779 77.2707 60.4536C77.1923 60.3751 77.4408 58.8189 77.656 58.0412C77.771 57.6256 77.8656 57.1333 77.8662 56.9472C77.8683 56.2819 77.4447 55.7471 76.7675 55.5601C76.1668 55.3943 75.3554 55.8031 75.1101 56.3952C74.656 57.4915 74.2668 59.8772 74.2624 61.5922L74.2593 62.8226L73.2345 63.6576C70.8855 65.5714 67.672 68.6195 65.451 71.0404L64.6044 71.9633L64.6002 71.1722C64.5892 69.1233 64.9824 66.7935 65.7511 64.353C65.9903 63.5934 66.0063 63.4728 65.9135 63.1279C65.7035 62.3481 64.9105 61.8725 64.1582 62.075C63.558 62.2367 63.2605 62.6035 62.9457 63.5697C61.735 67.2871 61.3998 71.0626 61.9734 74.5212L62.0769 75.1457L61.6789 75.6638C61.0929 76.4265 59.3541 79.0219 58.6672 80.1591C58.3388 80.7029 58.044 81.1478 58.0122 81.1478C57.9803 81.1478 57.8018 80.6846 57.6155 80.1185C55.7288 74.3858 55.4381 69.5789 56.7377 65.6018C58.6829 59.6493 64.5474 55.4514 73.7405 53.4312C77.2273 52.665 80.1812 52.2882 84.7667 52.0251C85.5124 51.9822 91.6977 51.9658 91.6569 52.0067ZM92.7339 55.8498C91.6896 59.3175 90.8274 63.7421 90.082 69.4584C89.3721 74.9025 88.9998 76.3847 87.6642 79.0824C85.3237 83.81 81.349 86.5665 75.7614 87.3371C74.492 87.5121 71.8672 87.5183 70.4367 87.3496C67.8716 87.0471 65.338 86.4021 62.7501 85.3928C61.4315 84.8784 59.8497 84.1315 59.8497 84.0232C59.8497 83.5879 63.9725 77.1928 64.2531 77.1928C64.3031 77.1928 64.8653 77.349 65.5026 77.5399C68.3058 78.3799 70.6609 78.7581 73.5735 78.8359C75.5815 78.8895 77.5051 78.7694 77.9939 78.5601C78.6452 78.281 79.021 77.4998 78.8226 76.8378C78.6911 76.3988 78.1643 75.9052 77.743 75.8261C77.5722 75.7941 76.9844 75.8116 76.4368 75.8651C73.8089 76.1216 70.5658 75.8346 67.5752 75.0807C65.9641 74.6746 66.0158 74.8482 67.1274 73.5768C69.1346 71.2808 71.9184 68.5772 74.4835 66.4325C75.1119 65.907 75.6941 65.4187 75.7772 65.3471C75.9123 65.231 76.0432 65.255 77.0077 65.573C78.8118 66.1677 80.7431 66.4741 82.6319 66.4656C84.6099 66.4566 85.0428 66.3367 85.4996 65.671C85.6692 65.4238 85.6991 65.2861 85.6709 64.8824C85.6277 64.2654 85.3619 63.8729 84.8264 63.6361C84.4746 63.4805 84.3169 63.4675 83.412 63.5197C82.8519 63.552 81.9516 63.5387 81.4114 63.4902C80.3817 63.3977 78.8316 63.131 78.8375 63.0473C78.8545 62.8039 84.4636 59.1859 87.2276 57.6355C88.6559 56.8342 93.0104 54.6015 93.0559 54.6471C93.0729 54.664 92.9279 55.2052 92.7339 55.8498Z" fill="#2C5282"/>
<line x1="13" y1="87.5171" x2="91.5171" y2="9" stroke="#2C5282" stroke-width="3" stroke-linecap="round"/>
<path fill-rule="evenodd" clip-rule="evenodd" d="M35.5741 1.19507C35.1548 1.29778 34.3633 1.63172 33.815 1.9373C32.8897 2.45299 32.6671 2.66777 30.7074 4.93646C28.2525 7.77847 27.9574 8.00207 26.6616 8.00207C25.6447 8.00207 25.1431 7.76081 24.2244 6.83041C23.0091 5.59951 22.0389 5.20352 20.4578 5.29286C18.8106 5.38594 18.323 5.7275 15.9725 8.43444C14.8987 9.67109 13.896 10.844 13.7444 11.0408C13.5368 11.3103 13.2226 11.4668 12.472 11.6742C11.9238 11.8257 11.0003 12.2201 10.4198 12.5507C9.07763 13.3148 1.53569 19.541 1.20663 20.1564C0.77074 20.9716 1.04949 22.0779 1.80775 22.5417C2.19158 22.7764 3.33847 22.786 31.0006 22.786C58.6626 22.786 59.8095 22.7764 60.1934 22.5417C60.9759 22.063 61.2406 20.9212 60.7577 20.1074C60.4254 19.5477 52.9671 13.3588 51.7572 12.639C51.2735 12.3512 50.5611 12.0076 50.1741 11.8755C49.5186 11.6516 49.3664 11.5134 47.946 9.8519C46.2731 7.89508 46.0425 7.75961 45.4781 8.40341C45.0137 8.93287 45.1013 9.31027 45.9219 10.3162L46.6537 11.2133L45.6862 11.3702C43.6183 11.7053 42.2458 12.3776 40.1958 14.0596C39.0053 15.0363 38.878 15.1092 38.672 14.9328C37.578 13.9958 35.7318 13.3758 34.0496 13.3801C32.0128 13.3855 30.6138 13.9496 28.6552 15.5553C26.818 17.0614 25.5818 17.1363 23.9613 15.8402C23.5837 15.5381 23.1448 15.2968 22.973 15.2968C22.6375 15.2968 22.0881 15.8288 22.0881 16.1536C22.0881 17.0618 23.7705 18.3547 25.3556 18.6647C26.8287 18.9527 28.1098 18.5105 29.719 17.1581C31.9004 15.3249 34.0917 14.8854 36.3169 15.835C37.53 16.3525 37.6218 16.1958 34.6937 18.6073L32.0545 20.781L17.648 20.7471L3.24172 20.7131L6.79616 17.7709C8.75116 16.1527 10.7352 14.6067 11.2054 14.3352C13.4735 13.0258 16.1638 12.9655 18.6334 14.1688C19.1521 14.4214 19.6332 14.6281 19.7024 14.6281C19.7717 14.6281 19.9674 14.5034 20.1373 14.3509C20.4627 14.059 20.5487 13.4912 20.3358 13.0379C20.1102 12.5571 18.2163 11.7631 16.2923 11.3429C15.9537 11.269 15.9673 11.2477 17.4063 9.59045C19.1165 7.62119 19.6248 7.27442 20.7981 7.27696C21.7442 7.27896 22.2762 7.54082 23.1938 8.45651C24.8948 10.1541 26.8741 10.5144 28.8537 9.48681C29.415 9.1954 29.908 8.70137 31.6575 6.67689C33.3465 4.72248 33.9275 4.13591 34.5005 3.80599C36.3032 2.7682 37.9976 2.73169 39.7837 3.69218C40.3244 3.98279 40.8709 4.46463 41.7399 5.41656C43.0262 6.82587 43.2823 6.95947 43.7934 6.48752C43.9893 6.30657 44.0644 6.09835 44.0644 5.73592C44.0644 5.27534 43.9633 5.12208 42.8166 3.8441C41.783 2.69224 41.4017 2.36218 40.5944 1.92072C38.9596 1.0267 37.2627 0.781425 35.5741 1.19507ZM49.2359 13.6298C50.5169 14.0325 51.5474 14.7422 54.9822 17.5874C56.8526 19.1369 58.4871 20.4891 58.6143 20.5923C58.8135 20.7539 57.1936 20.78 46.9612 20.78H35.0766L38.4037 18.017C40.2335 16.4973 41.9973 15.0588 42.3232 14.8202C43.1187 14.2376 44.1499 13.755 45.1376 13.503C46.1461 13.2457 48.2178 13.3098 49.2359 13.6298ZM35.9845 25.3794C34.8133 25.6367 33.5733 26.1579 32.6651 26.7747C32.2333 27.0678 30.7496 28.2423 29.3678 29.3846C27.0236 31.3226 26.8395 31.4487 26.6152 31.2695C25.8999 30.6982 24.9538 31.4466 25.2539 32.3465C25.3155 32.5312 25.8932 33.1205 26.5641 33.6828L27.7643 34.6884H19.3324C14.695 34.6884 10.9508 34.638 11.012 34.5765C11.3728 34.2141 15.5253 30.8406 16.0831 30.4569C17.2059 29.6845 18.1476 29.429 19.6067 29.5014C20.6577 29.5534 21.0013 29.6299 21.7655 29.982C22.2704 30.2147 22.7653 30.3637 22.8795 30.3176C23.3012 30.1471 23.4953 29.8352 23.4953 29.3281C23.4953 28.6738 23.2161 28.4225 21.9483 27.9353C20.6695 27.444 18.7857 27.3256 17.4875 27.655C16.1205 28.0018 15.1262 28.673 11.37 31.7844L7.86401 34.6884H6.48985C5.27717 34.6884 5.07933 34.7211 4.80668 34.9657C4.41946 35.313 4.38299 36.0288 4.73222 36.427C4.96535 36.6929 5.12307 36.6945 31.0006 36.6945C55.5 36.5 55.1966 36.846 55.5 36.5C55.8492 36.1017 55.8872 35.3473 55.5 35C55.2136 34.7431 54.7957 34.6884 54.7957 34.6884H52.7059L48.0979 30.8782C45.5634 28.7826 43.0914 26.8299 42.6045 26.539C41.2133 25.7078 39.8732 25.3152 38.2126 25.2523C37.3233 25.2188 36.5033 25.2654 35.9845 25.3794ZM2.99534 27.0707C2.82788 27.2486 2.73864 27.5024 2.73864 27.8011C2.73864 28.0997 2.82788 28.3535 2.99534 28.5314C3.24078 28.7922 3.39335 28.8041 6.49126 28.8041C9.58916 28.8041 9.74173 28.7922 9.98717 28.5314C10.1546 28.3535 10.2439 28.0997 10.2439 27.8011C10.2439 27.5024 10.1546 27.2486 9.98717 27.0707C9.74173 26.81 9.58916 26.7981 6.49126 26.7981C3.39335 26.7981 3.24078 26.81 2.99534 27.0707ZM50.4894 27.0707C50.1444 27.4373 50.1444 28.1648 50.4894 28.5314C50.7341 28.7914 50.8886 28.8041 53.8095 28.8041C56.7303 28.8041 56.8848 28.7914 57.1295 28.5314C57.2969 28.3535 57.3862 28.0997 57.3862 27.8011C57.3862 27.5024 57.2969 27.2486 57.1295 27.0707C56.8848 26.8108 56.7303 26.7981 53.8095 26.7981C50.8886 26.7981 50.7341 26.8108 50.4894 27.0707ZM40.0613 27.5335C41.3549 27.9154 42.3213 28.5825 46.0673 31.6794L49.6262 34.6216L40.2027 34.6558L30.779 34.6901L29.6291 33.742C28.9967 33.2204 28.4675 32.7537 28.4532 32.7048C28.4179 32.5835 32.8225 28.9786 33.6667 28.4379C34.4178 27.9567 35.5199 27.5043 36.3665 27.3294C37.194 27.1585 39.1589 27.2671 40.0613 27.5335Z" fill="#2C5282" stroke="#2C5282"/>
</svg>
