<svg width="98" height="94" viewBox="0 0 98 94" fill="none" xmlns="http://www.w3.org/2000/svg">
<path fill-rule="evenodd" clip-rule="evenodd" d="M81.5381 50.4764L74.2431 51.944L74.2205 57.9924L74.198 64.0406L79.8016 71.0573L85.4052 78.074L88.7229 78.0785L92.0405 78.0831L94.9851 73.6668L97.9297 69.2504V62.1095V54.9688L93.4478 51.98C90.9829 50.3362 88.9362 48.9953 88.8995 49C88.8629 49.0048 85.5503 49.6692 81.5381 50.4764ZM86.8476 52.3092C86.8433 52.3937 86.4182 54.1241 85.9028 56.1544L84.9658 59.8458L80.9008 60.8682L76.8359 61.8907V58.0026V54.1146L81.6479 53.1438C84.2946 52.6099 86.5489 52.169 86.6577 52.1642C86.7935 52.1581 86.853 52.2035 86.8476 52.3092ZM92.5171 54.5236L95.2929 56.3755V62.4175V68.4594L92.9635 71.9529L90.634 75.4464H89.0084H87.3828V68.2827V61.1189L88.4496 56.8522C89.2294 53.7335 89.5467 52.5969 89.6288 52.6285C89.6906 52.6522 90.9903 53.5049 92.5171 54.5236ZM62.6523 55.8942C59.7094 56.8795 57.2788 57.7086 57.2509 57.7365C57.2229 57.7645 58.8 59.3875 60.7553 61.3434L64.3107 64.8995H66.2015H68.0924L69.9367 63.0536L71.781 61.2078L70.002 57.6484C69.0235 55.6907 68.1734 54.092 68.1129 54.0958C68.0524 54.0997 65.5951 54.9089 62.6523 55.8942ZM67.6953 59.0108L68.5265 60.6808L67.7392 61.4718L66.9519 62.2628H66.2038H65.4557L63.7624 60.5711L62.069 58.8794L64.3328 58.1171C65.5779 57.6978 66.6568 57.3516 66.7303 57.3479C66.8187 57.3433 67.1459 57.9071 67.6953 59.0108ZM84.7461 67.8108V73.0073L81.3167 68.7207C79.4305 66.3631 77.9107 64.4102 77.9394 64.3811C77.9679 64.352 79.5013 63.9463 81.3467 63.4794C83.1922 63.0125 84.712 62.6269 84.7241 62.6224C84.7361 62.618 84.7461 64.9528 84.7461 67.8108ZM66.1132 70.247L58.9502 73.1173L55.945 77.6386C54.2498 80.1893 52.9664 82.2038 53.0007 82.2604C53.0342 82.3156 55.0186 84.9776 57.4104 88.176L61.7593 93.9913H71.8359H81.9124L83.4334 87.903L84.9545 81.8145L79.1725 74.5875C75.9923 70.6126 73.3648 67.3641 73.3334 67.3685C73.302 67.3729 70.0529 68.6683 66.1132 70.247ZM70.1468 76.328C69.5758 79.1816 69.0793 81.5645 69.0435 81.6234C68.825 81.9837 62.4757 90.3878 62.4221 90.3878C62.3656 90.3878 56.2707 82.2903 56.1998 82.121C56.1857 82.0871 57.1791 80.5381 58.4074 78.6786L60.6407 75.2977L65.816 73.2228C68.6623 72.0816 71.0349 71.1461 71.0881 71.1438C71.1477 71.1413 70.7842 73.143 70.1468 76.328ZM77.352 76.5218C79.1951 78.8294 80.7031 80.7378 80.7031 80.7625C80.7031 80.7874 78.7314 80.8077 76.3217 80.8077H71.9403L72.8202 76.4077C73.6544 72.236 73.7079 72.0161 73.8504 72.167C73.9331 72.2546 75.5088 74.2143 77.352 76.5218ZM80.8406 87.3775L79.8571 91.3106L72.4573 91.3331L65.0574 91.3556L68.0239 87.4L70.9905 83.4444H76.4073H81.8241L80.8406 87.3775Z" fill="#2C5282"/>
<line x1="13" y1="87.5171" x2="91.5171" y2="9" stroke="#2C5282" stroke-width="3" stroke-linecap="round"/>
<path fill-rule="evenodd" clip-rule="evenodd" d="M35.5741 1.19507C35.1548 1.29778 34.3633 1.63172 33.815 1.9373C32.8897 2.45299 32.6671 2.66777 30.7074 4.93646C28.2525 7.77847 27.9574 8.00207 26.6616 8.00207C25.6447 8.00207 25.1431 7.76081 24.2244 6.83041C23.0091 5.59951 22.0389 5.20352 20.4578 5.29286C18.8106 5.38594 18.323 5.7275 15.9725 8.43444C14.8987 9.67109 13.896 10.844 13.7444 11.0408C13.5368 11.3103 13.2226 11.4668 12.472 11.6742C11.9238 11.8257 11.0003 12.2201 10.4198 12.5507C9.07763 13.3148 1.53569 19.541 1.20663 20.1564C0.77074 20.9716 1.04949 22.0779 1.80775 22.5417C2.19158 22.7764 3.33847 22.786 31.0006 22.786C58.6626 22.786 59.8095 22.7764 60.1934 22.5417C60.9759 22.063 61.2406 20.9212 60.7577 20.1074C60.4254 19.5477 52.9671 13.3588 51.7572 12.639C51.2735 12.3512 50.5611 12.0076 50.1741 11.8755C49.5186 11.6516 49.3664 11.5134 47.946 9.8519C46.2731 7.89508 46.0425 7.75961 45.4781 8.40341C45.0137 8.93287 45.1013 9.31027 45.9219 10.3162L46.6537 11.2133L45.6862 11.3702C43.6183 11.7053 42.2458 12.3776 40.1958 14.0596C39.0053 15.0363 38.878 15.1092 38.672 14.9328C37.578 13.9958 35.7318 13.3758 34.0496 13.3801C32.0128 13.3855 30.6138 13.9496 28.6552 15.5553C26.818 17.0614 25.5818 17.1363 23.9613 15.8402C23.5837 15.5381 23.1448 15.2968 22.973 15.2968C22.6375 15.2968 22.0881 15.8288 22.0881 16.1536C22.0881 17.0618 23.7705 18.3547 25.3556 18.6647C26.8287 18.9527 28.1098 18.5105 29.719 17.1581C31.9004 15.3249 34.0917 14.8854 36.3169 15.835C37.53 16.3525 37.6218 16.1958 34.6937 18.6073L32.0545 20.781L17.648 20.7471L3.24172 20.7131L6.79616 17.7709C8.75116 16.1527 10.7352 14.6067 11.2054 14.3352C13.4735 13.0258 16.1638 12.9655 18.6334 14.1688C19.1521 14.4214 19.6332 14.6281 19.7024 14.6281C19.7717 14.6281 19.9674 14.5034 20.1373 14.3509C20.4627 14.059 20.5487 13.4912 20.3358 13.0379C20.1102 12.5571 18.2163 11.7631 16.2923 11.3429C15.9537 11.269 15.9673 11.2477 17.4063 9.59045C19.1165 7.62119 19.6248 7.27442 20.7981 7.27696C21.7442 7.27896 22.2762 7.54082 23.1938 8.45651C24.8948 10.1541 26.8741 10.5144 28.8537 9.48681C29.415 9.1954 29.908 8.70137 31.6575 6.67689C33.3465 4.72248 33.9275 4.13591 34.5005 3.80599C36.3032 2.7682 37.9976 2.73169 39.7837 3.69218C40.3244 3.98279 40.8709 4.46463 41.7399 5.41656C43.0262 6.82587 43.2823 6.95947 43.7934 6.48752C43.9893 6.30657 44.0644 6.09835 44.0644 5.73592C44.0644 5.27534 43.9633 5.12208 42.8166 3.8441C41.783 2.69224 41.4016 2.36218 40.5944 1.92072C38.9596 1.0267 37.2627 0.781425 35.5741 1.19507ZM49.2359 13.6298C50.5169 14.0325 51.5474 14.7422 54.9822 17.5874C56.8526 19.1369 58.4871 20.4891 58.6143 20.5923C58.8135 20.7539 57.1936 20.78 46.9612 20.78H35.0766L38.4037 18.017C40.2335 16.4973 41.9973 15.0588 42.3232 14.8202C43.1187 14.2376 44.1499 13.755 45.1376 13.503C46.1461 13.2457 48.2178 13.3098 49.2359 13.6298ZM35.9845 25.3794C34.8133 25.6367 33.5733 26.1579 32.6651 26.7747C32.2333 27.0678 30.7496 28.2423 29.3678 29.3846C27.0236 31.3226 26.8395 31.4487 26.6152 31.2695C25.8999 30.6982 24.9538 31.4466 25.2539 32.3465C25.3155 32.5312 25.8932 33.1205 26.5641 33.6828L27.7643 34.6884H19.3324C14.695 34.6884 10.9508 34.638 11.012 34.5765C11.3728 34.2141 15.5253 30.8406 16.0831 30.4569C17.2059 29.6845 18.1476 29.429 19.6067 29.5014C20.6577 29.5534 21.0013 29.6299 21.7655 29.982C22.2704 30.2147 22.7653 30.3637 22.8795 30.3176C23.3012 30.1471 23.4953 29.8352 23.4953 29.3281C23.4953 28.6738 23.2161 28.4225 21.9483 27.9353C20.6695 27.444 18.7857 27.3256 17.4875 27.655C16.1205 28.0018 15.1262 28.673 11.37 31.7844L7.86401 34.6884H6.48985C5.27717 34.6884 5.07933 34.7211 4.80668 34.9657C4.41946 35.313 4.38299 36.0288 4.73222 36.427C4.96535 36.6929 5.12307 36.6945 31.0006 36.6945C55.5 36.5 55.1966 36.846 55.5 36.5C55.8492 36.1017 55.8872 35.3473 55.5 35C55.2136 34.7431 54.7957 34.6884 54.7957 34.6884H52.7059L48.0979 30.8782C45.5634 28.7826 43.0914 26.8299 42.6045 26.539C41.2133 25.7078 39.8732 25.3152 38.2126 25.2523C37.3233 25.2188 36.5033 25.2654 35.9845 25.3794ZM2.99534 27.0707C2.82788 27.2486 2.73864 27.5024 2.73864 27.8011C2.73864 28.0997 2.82788 28.3535 2.99534 28.5314C3.24078 28.7922 3.39335 28.8041 6.49126 28.8041C9.58916 28.8041 9.74173 28.7922 9.98717 28.5314C10.1546 28.3535 10.2439 28.0997 10.2439 27.8011C10.2439 27.5024 10.1546 27.2486 9.98717 27.0707C9.74173 26.81 9.58916 26.7981 6.49126 26.7981C3.39335 26.7981 3.24078 26.81 2.99534 27.0707ZM50.4894 27.0707C50.1444 27.4373 50.1444 28.1648 50.4894 28.5314C50.7341 28.7914 50.8886 28.8041 53.8095 28.8041C56.7303 28.8041 56.8848 28.7914 57.1295 28.5314C57.2969 28.3535 57.3862 28.0997 57.3862 27.8011C57.3862 27.5024 57.2969 27.2486 57.1295 27.0707C56.8848 26.8108 56.7303 26.7981 53.8095 26.7981C50.8886 26.7981 50.7341 26.8108 50.4894 27.0707ZM40.0613 27.5335C41.3549 27.9154 42.3213 28.5825 46.0673 31.6794L49.6262 34.6216L40.2027 34.6558L30.779 34.6901L29.6291 33.742C28.9967 33.2204 28.4675 32.7537 28.4532 32.7048C28.4179 32.5835 32.8225 28.9786 33.6667 28.4379C34.4178 27.9567 35.5199 27.5043 36.3665 27.3294C37.194 27.1585 39.1589 27.2671 40.0613 27.5335Z" fill="#2C5282" stroke="#2C5282"/>
</svg>
