<svg width="98" height="94" viewBox="0 0 98 94" fill="none" xmlns="http://www.w3.org/2000/svg">
<path fill-rule="evenodd" clip-rule="evenodd" d="M89.3028 49.1724C89.8261 49.4487 89.985 49.8612 89.985 50.9437V51.8487L90.4464 52.0601C91.0157 52.321 91.9014 53.1926 92.1736 53.7598C92.5932 54.6342 92.6196 54.9006 92.6196 58.2636C92.6196 61.6335 92.5936 61.8932 92.1705 62.7605C91.8863 63.3429 91.0128 64.2076 90.4464 64.4671L89.985 64.6786V66.1073C89.985 66.9269 90.0197 67.5361 90.0665 67.5361C90.4381 67.5361 91.647 67.7677 92.2226 67.9492C93.5135 68.3562 94.5605 68.9716 95.5528 69.9069C98.7001 72.8732 98.7887 77.7096 95.7538 80.8796C95.0707 81.593 94.3473 82.1112 93.4064 82.561C92.2085 83.1337 91.5154 83.2743 89.5016 83.3532C87.655 83.4256 87.3459 83.4866 86.5938 83.9273C86.0727 84.2328 85.3387 85.0704 85.0532 85.6855C84.9187 85.9755 84.7267 86.6281 84.6268 87.1357C84.4027 88.2737 84.2462 88.763 83.854 89.5527C82.963 91.3465 81.4289 92.7531 79.5807 93.4708C78.218 93.9999 78.2289 93.9993 68.4845 93.9707C59.7119 93.9449 59.6117 93.9427 58.9514 93.7553C56.6224 93.0945 54.811 91.5746 53.7784 89.4145C53.1985 88.2016 53.0429 87.4774 53.0429 85.9931C53.0429 84.9664 53.0792 84.5858 53.2297 84.0348C53.9227 81.4993 55.9083 79.4381 58.5062 78.557C59.5032 78.2189 60.3943 78.083 61.6126 78.083C62.6573 78.083 63.0853 77.9067 63.3631 77.3621C63.688 76.7253 63.4709 75.9915 62.8578 75.6539C62.5705 75.4957 62.3192 75.4598 61.2008 75.4172C59.2527 75.3428 58.0169 74.9746 56.606 74.0481C54.1835 72.4574 52.8552 69.904 53.0125 67.1406C53.0791 65.9713 53.3277 65.041 53.8579 63.9765C54.6475 62.3918 55.7379 61.3042 57.3556 60.4882L58.2564 60.0337V57.6369C58.2564 55.0722 58.3078 54.6123 58.6829 53.8252C58.977 53.2078 59.8346 52.3451 60.4317 52.0658L60.8932 51.8501V50.9444C60.8932 49.8452 61.051 49.4451 61.594 49.1681C62.0333 48.944 62.3898 48.944 62.829 49.1681C63.3719 49.4451 63.5299 49.8452 63.5299 50.9437V51.8487L63.9913 52.0601C64.5607 52.321 65.4463 53.1926 65.7185 53.7598C66.1182 54.5925 66.1645 54.9654 66.1655 57.3587L66.1666 59.6179L72.1212 59.6468C78.0205 59.6754 78.0823 59.6775 78.7763 59.8768C81.2835 60.5967 83.1088 62.2054 84.1356 64.6C84.3202 65.0305 84.5798 65.541 84.7124 65.7343C85.265 66.5398 86.2663 67.2538 87.0681 67.4142L87.3482 67.4702L87.3479 66.0749L87.3476 64.6796L86.7767 64.3844C85.8029 63.8809 85.0439 62.8656 84.8096 61.753C84.6771 61.1238 84.6771 55.4035 84.8096 54.7743C85.0412 53.6744 85.9328 52.512 86.8868 52.0658L87.3482 51.8501V50.9444C87.3482 49.8452 87.5061 49.4451 88.0491 49.1681C88.4821 48.9472 88.8788 48.9485 89.3028 49.1724ZM88.0491 54.4415C87.8257 54.5554 87.6391 54.7421 87.5252 54.9654C87.3583 55.2927 87.3482 55.4792 87.3482 58.2701C87.3482 61.1716 87.352 61.2347 87.5453 61.5786C87.7653 61.97 88.245 62.2627 88.6666 62.2627C89.1027 62.2627 89.609 61.9518 89.808 61.5618C89.9753 61.234 89.9848 61.0521 89.9813 58.2452C89.9771 54.8969 89.9723 54.8696 89.3176 54.4733C88.8968 54.2186 88.5053 54.2088 88.0491 54.4415ZM61.594 54.4415C61.3707 54.5554 61.184 54.7421 61.0701 54.9654C60.9031 55.2927 60.8932 55.4771 60.8951 58.2381C60.8968 60.9195 60.9109 61.1947 61.0635 61.5307C61.2646 61.9735 61.5598 62.1823 62.0654 62.2394C62.5923 62.2987 63.1182 62.022 63.353 61.5618C63.5202 61.234 63.5297 61.0521 63.5262 58.2452C63.5221 54.8969 63.5172 54.8696 62.8625 54.4733C62.4417 54.2186 62.0502 54.2088 61.594 54.4415ZM65.7286 62.7241C65.4516 63.3166 64.5839 64.1844 63.9913 64.4614L63.5299 64.6772V66.9012C63.5299 68.9567 63.5164 69.1514 63.353 69.472C63.154 69.8619 62.6476 70.1728 62.2115 70.1728C61.7754 70.1728 61.2691 69.8619 61.0701 69.472C60.9066 69.1514 60.8932 68.9567 60.8932 66.9012V64.6772L60.4409 64.4625C59.8957 64.2036 59.1466 63.5379 58.9135 63.1052C58.8202 62.9319 58.6996 62.79 58.6456 62.79C58.4292 62.79 57.4803 63.4944 57.009 64.005C54.8233 66.3727 55.2941 69.9971 58.0246 71.8233C59.0365 72.5002 59.8538 72.7252 61.5963 72.8068C62.6982 72.8584 63.1661 72.9175 63.5446 73.0526C65.7423 73.8377 66.7607 76.3465 65.7541 78.4958C65.3316 79.3976 64.3429 80.2342 63.3101 80.5634C63.1651 80.6096 62.3939 80.6787 61.5963 80.717C59.8754 80.7997 59.0598 81.0228 58.0454 81.6886C57.4337 82.0901 56.7114 82.783 56.5075 83.1641L56.4046 83.3564H59.4434C62.3155 83.3564 62.5012 83.3661 62.829 83.5333C63.219 83.7323 63.5299 84.2386 63.5299 84.6748C63.5299 85.0964 63.2372 85.5761 62.8458 85.7961C62.4992 85.9909 62.4561 85.9931 59.0575 85.9931H55.6197L55.6212 86.2348C55.6243 86.7201 55.8895 87.717 56.1758 88.3197C56.7721 89.5748 57.8902 90.5835 59.2253 91.0706L59.8824 91.3105L68.5836 91.3356C78.027 91.363 77.9177 91.3677 78.9547 90.8819C80.0204 90.3826 81.0196 89.3678 81.5578 88.2381C81.772 87.7885 81.8668 87.4467 82.1253 86.1909L82.166 85.9931H80.0075C78.0177 85.9931 77.8219 85.9793 77.5022 85.8162C77.1122 85.6172 76.8014 85.1109 76.8014 84.6748C76.8014 84.2386 77.1122 83.7323 77.5022 83.5333C77.8277 83.3673 78.0164 83.3564 80.5771 83.3564H83.3053L83.9921 82.6753C85.4486 81.2309 86.8116 80.724 89.2458 80.7212C91.2015 80.719 92.2792 80.3931 93.4297 79.4558C93.8593 79.1058 94.5553 78.2905 94.5553 78.1371C94.5553 78.1073 93.7627 78.083 92.7939 78.083C91.2021 78.083 90.9992 78.0659 90.6858 77.906C90.2958 77.7071 89.985 77.2007 89.985 76.7646C89.985 76.3285 90.2958 75.8222 90.6858 75.6232C91.0056 75.46 91.2013 75.4462 93.2008 75.4462H95.369L95.3069 74.8974C95.0839 72.9269 93.5581 71.1723 91.4791 70.4958C91.1165 70.3779 90.632 70.2576 90.4024 70.2287L89.985 70.1761V70.969C89.985 71.5901 89.9466 71.8369 89.808 72.1087C89.609 72.4987 89.1027 72.8095 88.6666 72.8095C88.2305 72.8095 87.7241 72.4987 87.5252 72.1087C87.3864 71.8365 87.3482 71.5901 87.3482 70.9645C87.3482 70.4012 87.316 70.1586 87.2384 70.1376C87.1779 70.1212 86.9038 70.0658 86.629 70.0143C85.4585 69.7953 84.3411 69.1795 83.3681 68.2172L82.6794 67.5361H80.2642C78.0172 67.5361 77.8249 67.5238 77.5022 67.3592C77.1122 67.1602 76.8014 66.6538 76.8014 66.2177C76.8014 65.7816 77.1122 65.2753 77.5022 65.0763C77.8157 64.9163 78.0186 64.8994 79.6146 64.8994H81.3801L81.1185 64.5192C80.4573 63.5582 79.2851 62.7504 78.102 62.4404C77.5028 62.2834 77.0809 62.272 71.7025 62.2675L65.9444 62.2627L65.7286 62.7241ZM73.4825 65.0806C74.0058 65.3569 74.1646 65.7694 74.1646 66.8519V67.7569L74.6261 67.9683C75.1954 68.2292 76.0811 69.1008 76.3533 69.668C76.7517 70.4983 76.7993 70.8764 76.8003 73.227L76.8014 75.4462H78.9142C80.8584 75.4462 81.0548 75.4604 81.374 75.6232C81.7639 75.8222 82.0748 76.3285 82.0748 76.7646C82.0748 77.2007 81.7639 77.7071 81.374 77.906C81.0534 78.0695 80.8587 78.083 78.8032 78.083H76.5792L76.3634 78.5444C76.0864 79.1369 75.2186 80.0047 74.6261 80.2817L74.1646 80.4975V84.0398C74.1646 87.4166 74.1564 87.5984 73.9877 87.929C73.7887 88.319 73.2824 88.6298 72.8463 88.6298C72.4102 88.6298 71.9038 88.319 71.7048 87.929C71.5362 87.5984 71.5279 87.4162 71.5276 84.0411L71.5273 80.5L70.9564 80.2047C69.9826 79.7012 69.2236 78.6859 68.9893 77.5733C68.8569 76.9446 68.8569 71.3112 68.9893 70.6825C69.2209 69.5826 70.1124 68.4202 71.0665 67.974L71.5279 67.7583V66.8527C71.5279 65.7534 71.6858 65.3533 72.2288 65.0763C72.6618 64.8554 73.0584 64.8567 73.4825 65.0806ZM72.2288 70.3497C72.0054 70.4636 71.8188 70.6503 71.7048 70.8736C71.538 71.2006 71.5279 71.3875 71.5279 74.1344C71.5279 76.9903 71.5319 77.0553 71.725 77.3989C72.0881 78.0451 72.8308 78.2511 73.4806 77.8859C74.1516 77.5088 74.1652 77.4337 74.1609 74.1094C74.1568 70.8102 74.1509 70.7772 73.4973 70.3815C73.0765 70.1268 72.685 70.117 72.2288 70.3497Z" fill="#2C5282"/>
<path d="M14 88.5171L92.5171 9.99998" stroke="#2C5282" stroke-width="3" stroke-linecap="round"/>
<path fill-rule="evenodd" clip-rule="evenodd" d="M35.5741 1.19507C35.1548 1.29778 34.3633 1.63172 33.815 1.9373C32.8897 2.45299 32.6671 2.66777 30.7074 4.93646C28.2525 7.77847 27.9574 8.00207 26.6616 8.00207C25.6447 8.00207 25.1431 7.76081 24.2244 6.83041C23.0091 5.59951 22.0389 5.20352 20.4578 5.29286C18.8106 5.38594 18.323 5.7275 15.9725 8.43444C14.8987 9.67109 13.896 10.844 13.7444 11.0408C13.5368 11.3103 13.2226 11.4668 12.472 11.6742C11.9238 11.8257 11.0003 12.2201 10.4198 12.5507C9.07763 13.3148 1.53569 19.541 1.20663 20.1564C0.77074 20.9716 1.04949 22.0779 1.80775 22.5417C2.19158 22.7764 3.33847 22.786 31.0006 22.786C58.6626 22.786 59.8095 22.7764 60.1934 22.5417C60.9759 22.063 61.2406 20.9212 60.7577 20.1074C60.4254 19.5477 52.9671 13.3588 51.7572 12.639C51.2735 12.3512 50.5611 12.0076 50.1741 11.8755C49.5186 11.6516 49.3664 11.5134 47.946 9.8519C46.2731 7.89508 46.0425 7.75961 45.4781 8.40341C45.0137 8.93287 45.1013 9.31027 45.9219 10.3162L46.6537 11.2133L45.6862 11.3702C43.6183 11.7053 42.2458 12.3776 40.1958 14.0596C39.0053 15.0363 38.878 15.1092 38.672 14.9328C37.578 13.9958 35.7318 13.3758 34.0496 13.3801C32.0128 13.3855 30.6138 13.9496 28.6552 15.5553C26.818 17.0614 25.5818 17.1363 23.9613 15.8402C23.5837 15.5381 23.1448 15.2968 22.973 15.2968C22.6375 15.2968 22.0881 15.8288 22.0881 16.1536C22.0881 17.0618 23.7705 18.3547 25.3556 18.6647C26.8287 18.9527 28.1098 18.5105 29.719 17.1581C31.9004 15.3249 34.0917 14.8854 36.3169 15.835C37.53 16.3525 37.6218 16.1958 34.6937 18.6073L32.0545 20.781L17.648 20.7471L3.24172 20.7131L6.79616 17.7709C8.75116 16.1527 10.7352 14.6067 11.2054 14.3352C13.4735 13.0258 16.1638 12.9655 18.6334 14.1688C19.1521 14.4214 19.6332 14.6281 19.7024 14.6281C19.7717 14.6281 19.9674 14.5034 20.1373 14.3509C20.4627 14.059 20.5487 13.4912 20.3358 13.0379C20.1102 12.5571 18.2163 11.7631 16.2923 11.3429C15.9537 11.269 15.9673 11.2477 17.4063 9.59045C19.1165 7.62119 19.6248 7.27442 20.7981 7.27696C21.7442 7.27896 22.2762 7.54082 23.1938 8.45651C24.8948 10.1541 26.8741 10.5144 28.8537 9.48681C29.415 9.1954 29.908 8.70137 31.6575 6.67689C33.3465 4.72248 33.9275 4.13591 34.5005 3.80599C36.3032 2.7682 37.9976 2.73169 39.7837 3.69218C40.3244 3.98279 40.8709 4.46463 41.7399 5.41656C43.0262 6.82587 43.2823 6.95947 43.7934 6.48752C43.9893 6.30657 44.0644 6.09835 44.0644 5.73592C44.0644 5.27534 43.9633 5.12208 42.8166 3.8441C41.783 2.69224 41.4016 2.36218 40.5944 1.92072C38.9596 1.0267 37.2627 0.781425 35.5741 1.19507ZM49.2359 13.6298C50.5169 14.0325 51.5474 14.7422 54.9822 17.5874C56.8526 19.1369 58.4871 20.4891 58.6143 20.5923C58.8135 20.7539 57.1936 20.78 46.9612 20.78H35.0766L38.4037 18.017C40.2335 16.4973 41.9973 15.0588 42.3232 14.8202C43.1187 14.2376 44.1499 13.755 45.1376 13.503C46.1461 13.2457 48.2178 13.3098 49.2359 13.6298ZM35.9845 25.3794C34.8133 25.6367 33.5733 26.1579 32.6651 26.7747C32.2333 27.0678 30.7496 28.2423 29.3678 29.3846C27.0236 31.3226 26.8395 31.4487 26.6152 31.2695C25.8999 30.6982 24.9538 31.4466 25.2539 32.3465C25.3155 32.5312 25.8932 33.1205 26.5641 33.6828L27.7643 34.6884H19.3324C14.695 34.6884 10.9508 34.638 11.012 34.5765C11.3728 34.2141 15.5253 30.8406 16.0831 30.4569C17.2059 29.6845 18.1476 29.429 19.6067 29.5014C20.6577 29.5534 21.0013 29.6299 21.7655 29.982C22.2704 30.2147 22.7653 30.3637 22.8795 30.3176C23.3012 30.1471 23.4953 29.8352 23.4953 29.3281C23.4953 28.6738 23.2161 28.4225 21.9483 27.9353C20.6695 27.444 18.7857 27.3256 17.4875 27.655C16.1205 28.0018 15.1262 28.673 11.37 31.7844L7.86401 34.6884H6.48985C5.27717 34.6884 5.07933 34.7211 4.80668 34.9657C4.41946 35.313 4.38299 36.0288 4.73222 36.427C4.96535 36.6929 5.12307 36.6945 31.0006 36.6945C55.5 36.5 55.1966 36.846 55.5 36.5C55.8492 36.1017 55.8872 35.3473 55.5 35C55.2136 34.7431 54.7957 34.6884 54.7957 34.6884H52.7059L48.0979 30.8782C45.5634 28.7826 43.0914 26.8299 42.6045 26.539C41.2133 25.7078 39.8732 25.3152 38.2126 25.2523C37.3233 25.2188 36.5033 25.2654 35.9845 25.3794ZM2.99534 27.0707C2.82788 27.2486 2.73864 27.5024 2.73864 27.8011C2.73864 28.0997 2.82788 28.3535 2.99534 28.5314C3.24078 28.7922 3.39335 28.8041 6.49126 28.8041C9.58916 28.8041 9.74173 28.7922 9.98717 28.5314C10.1546 28.3535 10.2439 28.0997 10.2439 27.8011C10.2439 27.5024 10.1546 27.2486 9.98717 27.0707C9.74173 26.81 9.58916 26.7981 6.49126 26.7981C3.39335 26.7981 3.24078 26.81 2.99534 27.0707ZM50.4894 27.0707C50.1444 27.4373 50.1444 28.1648 50.4894 28.5314C50.7341 28.7914 50.8886 28.8041 53.8095 28.8041C56.7303 28.8041 56.8848 28.7914 57.1295 28.5314C57.2969 28.3535 57.3862 28.0997 57.3862 27.8011C57.3862 27.5024 57.2969 27.2486 57.1295 27.0707C56.8848 26.8108 56.7303 26.7981 53.8095 26.7981C50.8886 26.7981 50.7341 26.8108 50.4894 27.0707ZM40.0613 27.5335C41.3549 27.9154 42.3213 28.5825 46.0673 31.6794L49.6262 34.6216L40.2027 34.6558L30.779 34.6901L29.6291 33.742C28.9967 33.2204 28.4675 32.7537 28.4532 32.7048C28.4179 32.5835 32.8225 28.9786 33.6667 28.4379C34.4178 27.9567 35.5199 27.5043 36.3665 27.3294C37.194 27.1585 39.1589 27.2671 40.0613 27.5335Z" fill="#2C5282" stroke="#2C5282"/>
</svg>
