<svg width="96" height="97" viewBox="0 0 96 97" fill="none" xmlns="http://www.w3.org/2000/svg">
<path fill-rule="evenodd" clip-rule="evenodd" d="M74.498 45.1077C73.5522 45.3794 66.9342 52.5484 63.5122 57.0085C57.4919 64.8548 54.7023 71.1286 55.0251 76.095C55.3689 81.3843 57.1483 85.8981 60.3687 89.6508C63.5356 93.3412 67.681 95.6761 72.4864 96.476C73.7054 96.6789 77.0609 96.6409 78.3399 96.4097C84.3332 95.3262 89.4214 91.6579 92.5424 86.1704C94.2087 83.2405 95.1899 79.8195 95.4321 76.095C95.8469 69.7132 91.0858 61.0668 81.1802 50.2128C78.2447 46.9964 76.4438 45.2502 75.9089 45.1017C75.4141 44.9642 74.9909 44.966 74.498 45.1077ZM76.4524 51.4448C78.8096 53.8569 82.0051 57.5963 84.1358 60.436C88.46 66.1987 90.8239 70.9453 91.1167 74.4525C91.2477 76.0208 90.8152 79.0304 90.1907 80.8969C89.7352 82.2581 88.639 84.426 87.8177 85.5903C86.9106 86.8758 84.9386 88.8361 83.7188 89.6645C79.0635 92.8266 73.4537 93.205 68.4541 90.6943C66.4487 89.6872 64.0355 87.5689 62.6395 85.5903C61.8181 84.426 60.722 82.2581 60.2665 80.8969C59.642 79.0304 59.2095 76.0208 59.3405 74.4525C59.7379 69.6923 64.0396 62.522 71.5777 54.0551C72.9233 52.5436 75.1209 50.2582 75.2286 50.2582C75.264 50.2582 75.8148 50.7922 76.4524 51.4448ZM63.9887 72.6063C63.4386 72.8562 62.9241 73.4815 62.8035 74.0467C62.6773 74.6385 62.8319 76.5225 63.1002 77.6635C63.7617 80.4749 64.9103 82.779 66.6675 84.8194C67.5086 85.796 67.8818 86.0117 68.7307 86.0119C69.8994 86.0123 70.7607 85.3151 70.8781 84.2739C70.9607 83.5408 70.7456 82.9715 70.0988 82.2112C68.3438 80.1479 67.3686 77.8514 67.0605 75.0554C66.9351 73.9185 66.8775 73.6939 66.6164 73.3233C66.0261 72.4853 64.9199 72.1834 63.9887 72.6063Z" fill="#2C5282"/>
<line x1="13" y1="87.5171" x2="91.5171" y2="9" stroke="#2C5282" stroke-width="3" stroke-linecap="round"/>
<path fill-rule="evenodd" clip-rule="evenodd" d="M35.5741 1.19507C35.1548 1.29778 34.3633 1.63172 33.815 1.9373C32.8897 2.45299 32.6671 2.66777 30.7074 4.93646C28.2525 7.77847 27.9574 8.00207 26.6616 8.00207C25.6447 8.00207 25.1431 7.76081 24.2244 6.83041C23.0091 5.59951 22.0389 5.20352 20.4578 5.29286C18.8106 5.38594 18.323 5.7275 15.9725 8.43444C14.8987 9.67109 13.896 10.844 13.7444 11.0408C13.5368 11.3103 13.2226 11.4668 12.472 11.6742C11.9238 11.8257 11.0003 12.2201 10.4198 12.5507C9.07763 13.3148 1.53569 19.541 1.20663 20.1564C0.77074 20.9716 1.04949 22.0779 1.80775 22.5417C2.19158 22.7764 3.33847 22.786 31.0006 22.786C58.6626 22.786 59.8095 22.7764 60.1934 22.5417C60.9759 22.063 61.2406 20.9212 60.7577 20.1074C60.4254 19.5477 52.9671 13.3588 51.7572 12.639C51.2735 12.3512 50.5611 12.0076 50.1741 11.8755C49.5186 11.6516 49.3664 11.5134 47.946 9.8519C46.2731 7.89508 46.0425 7.75961 45.4781 8.40341C45.0137 8.93287 45.1013 9.31027 45.9219 10.3162L46.6537 11.2133L45.6862 11.3702C43.6183 11.7053 42.2458 12.3776 40.1958 14.0596C39.0053 15.0363 38.878 15.1092 38.672 14.9328C37.578 13.9958 35.7318 13.3758 34.0496 13.3801C32.0128 13.3855 30.6138 13.9496 28.6552 15.5553C26.818 17.0614 25.5818 17.1363 23.9613 15.8402C23.5837 15.5381 23.1448 15.2968 22.973 15.2968C22.6375 15.2968 22.0881 15.8288 22.0881 16.1536C22.0881 17.0618 23.7705 18.3547 25.3556 18.6647C26.8287 18.9527 28.1098 18.5105 29.719 17.1581C31.9004 15.3249 34.0917 14.8854 36.3169 15.835C37.53 16.3525 37.6218 16.1958 34.6937 18.6073L32.0545 20.781L17.648 20.7471L3.24172 20.7131L6.79616 17.7709C8.75116 16.1527 10.7352 14.6067 11.2054 14.3352C13.4735 13.0258 16.1638 12.9655 18.6334 14.1688C19.1521 14.4214 19.6332 14.6281 19.7024 14.6281C19.7717 14.6281 19.9674 14.5034 20.1373 14.3509C20.4627 14.059 20.5487 13.4912 20.3358 13.0379C20.1102 12.5571 18.2163 11.7631 16.2923 11.3429C15.9537 11.269 15.9673 11.2477 17.4063 9.59045C19.1165 7.62119 19.6248 7.27442 20.7981 7.27696C21.7442 7.27896 22.2762 7.54082 23.1938 8.45651C24.8948 10.1541 26.8741 10.5144 28.8537 9.48681C29.415 9.1954 29.908 8.70137 31.6575 6.67689C33.3465 4.72248 33.9275 4.13591 34.5005 3.80599C36.3032 2.7682 37.9976 2.73169 39.7837 3.69218C40.3244 3.98279 40.8709 4.46463 41.7399 5.41656C43.0262 6.82587 43.2823 6.95947 43.7934 6.48752C43.9893 6.30657 44.0644 6.09835 44.0644 5.73592C44.0644 5.27534 43.9633 5.12208 42.8166 3.8441C41.783 2.69224 41.4016 2.36218 40.5944 1.92072C38.9596 1.0267 37.2627 0.781425 35.5741 1.19507ZM49.2359 13.6298C50.5169 14.0325 51.5474 14.7422 54.9822 17.5874C56.8526 19.1369 58.4871 20.4891 58.6143 20.5923C58.8135 20.7539 57.1936 20.78 46.9612 20.78H35.0766L38.4037 18.017C40.2335 16.4973 41.9973 15.0588 42.3232 14.8202C43.1187 14.2376 44.1499 13.755 45.1376 13.503C46.1461 13.2457 48.2178 13.3098 49.2359 13.6298ZM35.9845 25.3794C34.8133 25.6367 33.5733 26.1579 32.6651 26.7747C32.2333 27.0678 30.7496 28.2423 29.3678 29.3846C27.0236 31.3226 26.8395 31.4487 26.6152 31.2695C25.8999 30.6982 24.9538 31.4466 25.2539 32.3465C25.3155 32.5312 25.8932 33.1205 26.5641 33.6828L27.7643 34.6884H19.3324C14.695 34.6884 10.9508 34.638 11.012 34.5765C11.3728 34.2141 15.5253 30.8406 16.0831 30.4569C17.2059 29.6845 18.1476 29.429 19.6067 29.5014C20.6577 29.5534 21.0013 29.6299 21.7655 29.982C22.2704 30.2147 22.7653 30.3637 22.8795 30.3176C23.3012 30.1471 23.4953 29.8352 23.4953 29.3281C23.4953 28.6738 23.2161 28.4225 21.9483 27.9353C20.6695 27.444 18.7857 27.3256 17.4875 27.655C16.1205 28.0018 15.1262 28.673 11.37 31.7844L7.86401 34.6884H6.48985C5.27717 34.6884 5.07933 34.7211 4.80668 34.9657C4.41946 35.313 4.38299 36.0288 4.73222 36.427C4.96535 36.6929 5.12307 36.6945 31.0006 36.6945C55.5 36.5 55.1966 36.846 55.5 36.5C55.8492 36.1017 55.8872 35.3473 55.5 35C55.2136 34.7431 54.7957 34.6884 54.7957 34.6884H52.7059L48.0979 30.8782C45.5634 28.7826 43.0914 26.8299 42.6045 26.539C41.2133 25.7078 39.8732 25.3152 38.2126 25.2523C37.3233 25.2188 36.5033 25.2654 35.9845 25.3794ZM2.99534 27.0707C2.82788 27.2486 2.73864 27.5024 2.73864 27.8011C2.73864 28.0997 2.82788 28.3535 2.99534 28.5314C3.24078 28.7922 3.39335 28.8041 6.49126 28.8041C9.58916 28.8041 9.74173 28.7922 9.98717 28.5314C10.1546 28.3535 10.2439 28.0997 10.2439 27.8011C10.2439 27.5024 10.1546 27.2486 9.98717 27.0707C9.74173 26.81 9.58916 26.7981 6.49126 26.7981C3.39335 26.7981 3.24078 26.81 2.99534 27.0707ZM50.4894 27.0707C50.1444 27.4373 50.1444 28.1648 50.4894 28.5314C50.7341 28.7914 50.8886 28.8041 53.8095 28.8041C56.7303 28.8041 56.8848 28.7914 57.1295 28.5314C57.2969 28.3535 57.3862 28.0997 57.3862 27.8011C57.3862 27.5024 57.2969 27.2486 57.1295 27.0707C56.8848 26.8108 56.7303 26.7981 53.8095 26.7981C50.8886 26.7981 50.7341 26.8108 50.4894 27.0707ZM40.0613 27.5335C41.3549 27.9154 42.3213 28.5825 46.0673 31.6794L49.6262 34.6216L40.2027 34.6558L30.779 34.6901L29.6291 33.742C28.9967 33.2204 28.4675 32.7537 28.4532 32.7048C28.4179 32.5835 32.8225 28.9786 33.6667 28.4379C34.4178 27.9567 35.5199 27.5043 36.3665 27.3294C37.194 27.1585 39.1589 27.2671 40.0613 27.5335Z" fill="#2C5282" stroke="#2C5282"/>
</svg>
