<svg width="89" height="88" viewBox="0 0 89 88" fill="none" xmlns="http://www.w3.org/2000/svg">
<path fill-rule="evenodd" clip-rule="evenodd" d="M80.3028 43.1724C80.8261 43.4487 80.985 43.8612 80.985 44.9437V45.8487L81.4464 46.0601C82.0157 46.321 82.9014 47.1926 83.1736 47.7598C83.5932 48.6342 83.6196 48.9006 83.6196 52.2636C83.6196 55.6335 83.5936 55.8932 83.1705 56.7605C82.8863 57.3429 82.0128 58.2076 81.4464 58.4671L80.985 58.6786V60.1073C80.985 60.9269 81.0197 61.5361 81.0665 61.5361C81.4381 61.5361 82.647 61.7677 83.2226 61.9492C84.5135 62.3562 85.5605 62.9716 86.5528 63.9069C89.7001 66.8732 89.7887 71.7096 86.7538 74.8796C86.0707 75.593 85.3473 76.1112 84.4064 76.561C83.2085 77.1337 82.5154 77.2743 80.5016 77.3532C78.655 77.4256 78.3459 77.4866 77.5938 77.9273C77.0727 78.2328 76.3387 79.0704 76.0532 79.6855C75.9187 79.9755 75.7267 80.6281 75.6268 81.1357C75.4027 82.2737 75.2462 82.763 74.854 83.5527C73.963 85.3465 72.4289 86.7531 70.5807 87.4708C69.218 87.9999 69.2289 87.9993 59.4845 87.9707C50.7119 87.9449 50.6117 87.9427 49.9514 87.7553C47.6224 87.0945 45.811 85.5746 44.7784 83.4145C44.1985 82.2016 44.0429 81.4774 44.0429 79.9931C44.0429 78.9664 44.0792 78.5858 44.2297 78.0348C44.9227 75.4993 46.9083 73.4381 49.5062 72.557C50.5032 72.2189 51.3943 72.083 52.6126 72.083C53.6573 72.083 54.0853 71.9067 54.3631 71.3621C54.688 70.7253 54.4709 69.9915 53.8578 69.6539C53.5705 69.4957 53.3192 69.4598 52.2008 69.4172C50.2527 69.3428 49.0169 68.9746 47.606 68.0481C45.1835 66.4574 43.8552 63.904 44.0125 61.1406C44.0791 59.9713 44.3277 59.041 44.8579 57.9765C45.6475 56.3918 46.7379 55.3042 48.3556 54.4882L49.2564 54.0337V51.6369C49.2564 49.0722 49.3078 48.6123 49.6829 47.8252C49.977 47.2078 50.8346 46.3451 51.4317 46.0658L51.8932 45.8501V44.9444C51.8932 43.8452 52.051 43.4451 52.594 43.1681C53.0333 42.944 53.3898 42.944 53.829 43.1681C54.3719 43.4451 54.5299 43.8452 54.5299 44.9437V45.8487L54.9913 46.0601C55.5607 46.321 56.4463 47.1926 56.7185 47.7598C57.1182 48.5925 57.1645 48.9654 57.1655 51.3587L57.1666 53.6179L63.1212 53.6468C69.0205 53.6754 69.0823 53.6775 69.7763 53.8768C72.2835 54.5967 74.1088 56.2054 75.1356 58.6C75.3202 59.0305 75.5798 59.541 75.7124 59.7343C76.265 60.5398 77.2663 61.2538 78.0681 61.4142L78.3482 61.4702L78.3479 60.0749L78.3476 58.6796L77.7767 58.3844C76.8029 57.8809 76.0439 56.8656 75.8096 55.753C75.6771 55.1238 75.6771 49.4035 75.8096 48.7743C76.0412 47.6744 76.9328 46.512 77.8868 46.0658L78.3482 45.8501V44.9444C78.3482 43.8452 78.5061 43.4451 79.0491 43.1681C79.4821 42.9472 79.8788 42.9485 80.3028 43.1724ZM79.0491 48.4415C78.8257 48.5554 78.6391 48.7421 78.5252 48.9654C78.3583 49.2927 78.3482 49.4792 78.3482 52.2701C78.3482 55.1716 78.352 55.2347 78.5453 55.5786C78.7653 55.97 79.245 56.2627 79.6666 56.2627C80.1027 56.2627 80.609 55.9518 80.808 55.5618C80.9753 55.234 80.9848 55.0521 80.9813 52.2452C80.9771 48.8969 80.9723 48.8696 80.3176 48.4733C79.8968 48.2186 79.5053 48.2088 79.0491 48.4415ZM52.594 48.4415C52.3707 48.5554 52.184 48.7421 52.0701 48.9654C51.9031 49.2927 51.8932 49.4771 51.8951 52.2381C51.8968 54.9195 51.9109 55.1947 52.0635 55.5307C52.2646 55.9735 52.5598 56.1823 53.0654 56.2394C53.5923 56.2987 54.1182 56.022 54.353 55.5618C54.5202 55.234 54.5297 55.0521 54.5262 52.2452C54.5221 48.8969 54.5172 48.8696 53.8625 48.4733C53.4417 48.2186 53.0502 48.2088 52.594 48.4415ZM56.7286 56.7241C56.4516 57.3166 55.5839 58.1844 54.9913 58.4614L54.5299 58.6772V60.9012C54.5299 62.9567 54.5164 63.1514 54.353 63.472C54.154 63.8619 53.6476 64.1728 53.2115 64.1728C52.7754 64.1728 52.2691 63.8619 52.0701 63.472C51.9066 63.1514 51.8932 62.9567 51.8932 60.9012V58.6772L51.4409 58.4625C50.8957 58.2036 50.1466 57.5379 49.9135 57.1052C49.8202 56.9319 49.6996 56.79 49.6456 56.79C49.4292 56.79 48.4803 57.4944 48.009 58.005C45.8233 60.3727 46.2941 63.9971 49.0246 65.8233C50.0365 66.5002 50.8538 66.7252 52.5963 66.8068C53.6982 66.8584 54.1661 66.9175 54.5446 67.0526C56.7423 67.8377 57.7607 70.3465 56.7541 72.4958C56.3316 73.3976 55.3429 74.2342 54.3101 74.5634C54.1651 74.6096 53.3939 74.6787 52.5963 74.717C50.8754 74.7997 50.0598 75.0228 49.0454 75.6886C48.4337 76.0901 47.7114 76.783 47.5075 77.1641L47.4046 77.3564H50.4434C53.3155 77.3564 53.5012 77.3661 53.829 77.5333C54.219 77.7323 54.5299 78.2386 54.5299 78.6748C54.5299 79.0964 54.2372 79.5761 53.8458 79.7961C53.4992 79.9909 53.4561 79.9931 50.0575 79.9931H46.6197L46.6212 80.2348C46.6243 80.7201 46.8895 81.717 47.1758 82.3197C47.7721 83.5748 48.8902 84.5835 50.2253 85.0706L50.8824 85.3105L59.5836 85.3356C69.027 85.363 68.9177 85.3677 69.9547 84.8819C71.0204 84.3826 72.0196 83.3678 72.5578 82.2381C72.772 81.7885 72.8668 81.4467 73.1253 80.1909L73.166 79.9931H71.0075C69.0177 79.9931 68.8219 79.9793 68.5022 79.8162C68.1122 79.6172 67.8014 79.1109 67.8014 78.6748C67.8014 78.2386 68.1122 77.7323 68.5022 77.5333C68.8277 77.3673 69.0164 77.3564 71.5771 77.3564H74.3053L74.9921 76.6753C76.4486 75.2309 77.8116 74.724 80.2458 74.7212C82.2015 74.719 83.2792 74.3931 84.4297 73.4558C84.8593 73.1058 85.5553 72.2905 85.5553 72.1371C85.5553 72.1073 84.7627 72.083 83.7939 72.083C82.2021 72.083 81.9992 72.0659 81.6858 71.906C81.2958 71.7071 80.985 71.2007 80.985 70.7646C80.985 70.3285 81.2958 69.8222 81.6858 69.6232C82.0056 69.46 82.2013 69.4462 84.2008 69.4462H86.369L86.3069 68.8974C86.0839 66.9269 84.5581 65.1723 82.4791 64.4958C82.1165 64.3779 81.632 64.2576 81.4024 64.2287L80.985 64.1761V64.969C80.985 65.5901 80.9466 65.8369 80.808 66.1087C80.609 66.4987 80.1027 66.8095 79.6666 66.8095C79.2305 66.8095 78.7241 66.4987 78.5252 66.1087C78.3864 65.8365 78.3482 65.5901 78.3482 64.9645C78.3482 64.4012 78.316 64.1586 78.2384 64.1376C78.1779 64.1212 77.9038 64.0658 77.629 64.0143C76.4585 63.7953 75.3411 63.1795 74.3681 62.2172L73.6794 61.5361H71.2642C69.0172 61.5361 68.8249 61.5238 68.5022 61.3592C68.1122 61.1602 67.8014 60.6538 67.8014 60.2177C67.8014 59.7816 68.1122 59.2753 68.5022 59.0763C68.8157 58.9163 69.0186 58.8994 70.6146 58.8994H72.3801L72.1185 58.5192C71.4573 57.5582 70.2851 56.7504 69.102 56.4404C68.5028 56.2834 68.0809 56.272 62.7025 56.2675L56.9444 56.2627L56.7286 56.7241ZM64.4825 59.0806C65.0058 59.3569 65.1646 59.7694 65.1646 60.8519V61.7569L65.6261 61.9683C66.1954 62.2292 67.0811 63.1008 67.3533 63.668C67.7517 64.4983 67.7993 64.8764 67.8003 67.227L67.8014 69.4462H69.9142C71.8584 69.4462 72.0548 69.4604 72.374 69.6232C72.7639 69.8222 73.0748 70.3285 73.0748 70.7646C73.0748 71.2007 72.7639 71.7071 72.374 71.906C72.0534 72.0695 71.8587 72.083 69.8032 72.083H67.5792L67.3634 72.5444C67.0864 73.1369 66.2186 74.0047 65.6261 74.2817L65.1646 74.4975V78.0398C65.1646 81.4166 65.1564 81.5984 64.9877 81.929C64.7887 82.319 64.2824 82.6298 63.8463 82.6298C63.4102 82.6298 62.9038 82.319 62.7048 81.929C62.5362 81.5984 62.5279 81.4162 62.5276 78.0411L62.5273 74.5L61.9564 74.2047C60.9826 73.7012 60.2236 72.6859 59.9893 71.5733C59.8569 70.9446 59.8569 65.3112 59.9893 64.6825C60.2209 63.5826 61.1124 62.4202 62.0665 61.974L62.5279 61.7583V60.8527C62.5279 59.7534 62.6858 59.3533 63.2288 59.0763C63.6618 58.8554 64.0584 58.8567 64.4825 59.0806ZM63.2288 64.3497C63.0054 64.4636 62.8188 64.6503 62.7048 64.8736C62.538 65.2006 62.5279 65.3875 62.5279 68.1344C62.5279 70.9903 62.5319 71.0553 62.725 71.3989C63.0881 72.0451 63.8308 72.2511 64.4806 71.8859C65.1516 71.5088 65.1652 71.4337 65.1609 68.1094C65.1568 64.8102 65.1509 64.7772 64.4973 64.3815C64.0765 64.1268 63.685 64.117 63.2288 64.3497Z" fill="#2C5282"/>
<line x1="4" y1="81.5171" x2="82.5171" y2="3" stroke="#2C5282" stroke-width="3" stroke-linecap="round"/>
<path fill-rule="evenodd" clip-rule="evenodd" d="M32.6008 0.0722383C22.34 0.422131 13.9588 2.54205 8.5196 6.16323C6.77058 7.32779 4.90044 9.01107 3.81833 10.3949C0.903179 14.123 -0.352603 18.6461 0.084829 23.8422C0.365991 27.1819 1.29025 30.8768 2.75811 34.5284C2.97819 35.076 3.15828 35.5744 3.15828 35.636C3.15828 35.6977 2.99656 36.0949 2.79889 36.5188C2.17759 37.8511 1.25342 40.2004 0.736274 41.7621C0.261313 43.1966 0.243208 43.284 0.343843 43.6562C0.555923 44.4401 1.35828 44.9169 2.12029 44.7117C2.72796 44.5481 2.99788 44.1905 3.37756 43.0463C3.87643 41.5431 4.33311 40.3353 4.92866 38.9445L5.46189 37.6993L6.3096 38.0952C9.89492 39.7701 13.4541 40.813 17.0889 41.2539C18.4688 41.4213 21.4728 41.4445 22.7139 41.2972C30.3027 40.3971 35.7152 36.1651 38.2935 29.1156C39.0096 27.1578 39.4018 25.3454 39.8057 22.1283C41.0442 12.2621 42.7063 5.5255 44.551 2.89581C44.7501 2.61193 44.9358 2.23945 44.9635 2.06815C45.0561 1.498 44.7085 0.812453 44.1912 0.544914C43.8232 0.354631 41.5691 0.173049 38.2944 0.0696895C35.3351 -0.0236504 35.4133 -0.0236503 32.6008 0.0722383ZM38.6569 3.00673C38.6356 3.02791 37.6106 3.5549 36.379 4.17787C32.7703 6.00301 28.7641 8.38309 25.7556 10.4891C24.9632 11.0439 24.2949 11.4779 24.2707 11.4536C24.1923 11.3751 24.4408 9.81887 24.656 9.04121C24.771 8.62558 24.8656 8.1333 24.8662 7.94724C24.8683 7.28191 24.4447 6.74709 23.7675 6.56015C23.1668 6.3943 22.3554 6.80308 22.1101 7.3952C21.656 8.49155 21.2668 10.8772 21.2624 12.5922L21.2593 13.8226L20.2345 14.6576C17.8855 16.5714 14.672 19.6195 12.451 22.0404L11.6044 22.9633L11.6002 22.1722C11.5892 20.1233 11.9824 17.7935 12.7511 15.353C12.9903 14.5934 13.0063 14.4728 12.9135 14.1279C12.7035 13.3481 11.9105 12.8725 11.1582 13.075C10.558 13.2367 10.2605 13.6035 9.94572 14.5697C8.73502 18.2871 8.39981 22.0626 8.97338 25.5212L9.07692 26.1457L8.67886 26.6638C8.0929 27.4265 6.35407 30.0219 5.6672 31.1591C5.33875 31.7029 5.04397 32.1478 5.01215 32.1478C4.98034 32.1478 4.80183 31.6847 4.6155 31.1185C2.72875 25.3858 2.4381 20.5789 3.73774 16.6018C5.68293 10.6493 11.5474 6.45143 20.7405 4.43117C24.2273 3.66503 27.1812 3.28824 31.7667 3.0251C32.5124 2.98221 38.6977 2.96577 38.6569 3.00673ZM39.7339 6.84984C38.6896 10.3175 37.8274 14.7421 37.082 20.4584C36.3721 25.9025 35.9998 27.3847 34.6642 30.0824C32.3237 34.81 28.349 37.5665 22.7614 38.3371C21.492 38.5121 18.8672 38.5183 17.4367 38.3496C14.8716 38.0471 12.338 37.4021 9.75007 36.3928C8.43145 35.8784 6.84968 35.1315 6.84968 35.0232C6.84968 34.5879 10.9725 28.1928 11.2531 28.1928C11.3031 28.1928 11.8653 28.349 12.5026 28.5399C15.3058 29.3799 17.6609 29.7581 20.5735 29.8359C22.5815 29.8895 24.5051 29.7694 24.9939 29.5601C25.6452 29.281 26.021 28.4998 25.8226 27.8378C25.6911 27.3988 25.1643 26.9052 24.743 26.8261C24.5722 26.7941 23.9844 26.8116 23.4368 26.8651C20.8089 27.1216 17.5658 26.8346 14.5752 26.0807C12.9641 25.6746 13.0158 25.8482 14.1274 24.5768C16.1346 22.2808 18.9184 19.5772 21.4835 17.4325C22.1119 16.907 22.6941 16.4187 22.7772 16.3471C22.9123 16.231 23.0432 16.255 24.0077 16.573C25.8118 17.1677 27.7431 17.4741 29.6319 17.4656C31.6099 17.4566 32.0428 17.3367 32.4996 16.671C32.6692 16.4238 32.6991 16.2861 32.6709 15.8824C32.6277 15.2654 32.3619 14.8729 31.8264 14.6361C31.4746 14.4805 31.3169 14.4675 30.412 14.5197C29.8519 14.552 28.9516 14.5387 28.4114 14.4902C27.3817 14.3977 25.8316 14.131 25.8375 14.0473C25.8545 13.8039 31.4636 10.1859 34.2276 8.63551C35.6559 7.83421 40.0104 5.60153 40.0559 5.64705C40.0729 5.66402 39.9279 6.20525 39.7339 6.84984Z" fill="#2C5282"/>
</svg>
