<svg width="88" height="93" viewBox="0 0 88 93" fill="none" xmlns="http://www.w3.org/2000/svg">
<path fill-rule="evenodd" clip-rule="evenodd" d="M66.498 41.1077C65.5522 41.3794 58.9342 48.5484 55.5122 53.0085C49.4919 60.8548 46.7023 67.1286 47.0251 72.095C47.3689 77.3843 49.1483 81.8981 52.3687 85.6508C55.5356 89.3412 59.681 91.6761 64.4864 92.476C65.7054 92.6789 69.0609 92.6409 70.3399 92.4097C76.3332 91.3262 81.4214 87.6579 84.5424 82.1704C86.2087 79.2405 87.1899 75.8195 87.4321 72.095C87.8469 65.7132 83.0858 57.0668 73.1802 46.2128C70.2447 42.9964 68.4438 41.2502 67.9089 41.1017C67.4141 40.9642 66.9909 40.966 66.498 41.1077ZM68.4524 47.4448C70.8096 49.8569 74.0051 53.5963 76.1358 56.436C80.46 62.1987 82.8239 66.9453 83.1167 70.4525C83.2477 72.0208 82.8152 75.0304 82.1907 76.8969C81.7352 78.2581 80.639 80.426 79.8177 81.5903C78.9106 82.8758 76.9386 84.8361 75.7188 85.6645C71.0635 88.8266 65.4537 89.205 60.4541 86.6943C58.4487 85.6872 56.0355 83.5689 54.6395 81.5903C53.8181 80.426 52.722 78.2581 52.2665 76.8969C51.642 75.0304 51.2095 72.0208 51.3405 70.4525C51.7379 65.6923 56.0396 58.522 63.5777 50.0551C64.9233 48.5436 67.1209 46.2582 67.2286 46.2582C67.264 46.2582 67.8148 46.7922 68.4524 47.4448ZM55.9887 68.6063C55.4386 68.8562 54.9241 69.4815 54.8035 70.0467C54.6773 70.6385 54.8319 72.5225 55.1002 73.6635C55.7617 76.4749 56.9103 78.779 58.6675 80.8194C59.5086 81.796 59.8818 82.0117 60.7307 82.0119C61.8994 82.0123 62.7607 81.3151 62.8781 80.2739C62.9607 79.5408 62.7456 78.9715 62.0988 78.2112C60.3438 76.1479 59.3686 73.8514 59.0605 71.0554C58.9351 69.9185 58.8775 69.6939 58.6164 69.3233C58.0261 68.4853 56.9199 68.1834 55.9887 68.6063Z" fill="#2C5282"/>
<line x1="5" y1="83.5171" x2="83.5171" y2="5" stroke="#2C5282" stroke-width="3" stroke-linecap="round"/>
<path fill-rule="evenodd" clip-rule="evenodd" d="M36.3028 0.172397C36.8261 0.448726 36.985 0.861196 36.985 1.94375V2.84867L37.4464 3.06013C38.0157 3.32099 38.9014 4.1926 39.1736 4.75976C39.5932 5.63418 39.6196 5.90058 39.6196 9.26363C39.6196 12.6335 39.5936 12.8932 39.1705 13.7605C38.8863 14.3429 38.0128 15.2076 37.4464 15.4671L36.985 15.6786V17.1073C36.985 17.9269 37.0197 18.5361 37.0665 18.5361C37.4381 18.5361 38.647 18.7677 39.2226 18.9492C40.5135 19.3562 41.5605 19.9716 42.5528 20.9069C45.7001 23.8732 45.7887 28.7096 42.7538 31.8796C42.0707 32.593 41.3473 33.1112 40.4064 33.561C39.2085 34.1337 38.5154 34.2743 36.5016 34.3532C34.655 34.4256 34.3459 34.4866 33.5938 34.9273C33.0727 35.2328 32.3387 36.0704 32.0532 36.6855C31.9187 36.9755 31.7267 37.6281 31.6268 38.1357C31.4027 39.2737 31.2462 39.763 30.854 40.5527C29.963 42.3465 28.4289 43.7531 26.5807 44.4708C25.218 44.9999 25.2289 44.9993 15.4845 44.9707C6.7119 44.9449 6.61171 44.9427 5.95139 44.7553C3.62238 44.0945 1.81104 42.5746 0.778408 40.4145C0.198505 39.2016 0.0428543 38.4774 0.0428543 36.9931C0.0428543 35.9664 0.0791512 35.5858 0.22971 35.0348C0.922726 32.4993 2.90826 30.4381 5.50622 29.557C6.50317 29.2189 7.39429 29.083 8.61263 29.083C9.6573 29.083 10.0853 28.9067 10.3631 28.3621C10.688 27.7253 10.4709 26.9915 9.85777 26.6539C9.57046 26.4957 9.31918 26.4598 8.20077 26.4172C6.25268 26.3428 5.01693 25.9746 3.60603 25.0481C1.18349 23.4574 -0.144794 20.904 0.0125313 18.1406C0.0790634 16.9713 0.327705 16.041 0.857948 14.9765C1.64747 13.3918 2.73793 12.3042 4.35556 11.4882L5.25644 11.0337V8.63688C5.25644 6.07223 5.30785 5.6123 5.68288 4.82515C5.97696 4.20781 6.8346 3.34507 7.43173 3.06585L7.89315 2.85007V1.94445C7.89315 0.8452 8.05101 0.445122 8.59399 0.168091C9.03327 -0.0560303 9.38976 -0.0560303 9.82903 0.168091C10.3719 0.445122 10.5299 0.8452 10.5299 1.94375V2.84867L10.9913 3.06013C11.5607 3.32099 12.4463 4.1926 12.7185 4.75976C13.1182 5.59252 13.1645 5.96544 13.1655 8.35871L13.1666 10.6179L19.1212 10.6468C25.0205 10.6754 25.0823 10.6775 25.7763 10.8768C28.2835 11.5967 30.1088 13.2054 31.1356 15.6C31.3202 16.0305 31.5798 16.541 31.7124 16.7343C32.265 17.5398 33.2663 18.2538 34.0681 18.4142L34.3482 18.4702L34.3479 17.0749L34.3476 15.6796L33.7767 15.3844C32.8029 14.8809 32.0439 13.8656 31.8096 12.753C31.6771 12.1238 31.6771 6.40349 31.8096 5.77428C32.0412 4.67442 32.9328 3.51198 33.8868 3.06585L34.3482 2.85007V1.94445C34.3482 0.8452 34.5061 0.445122 35.0491 0.168091C35.4821 -0.0527783 35.8788 -0.05146 36.3028 0.172397ZM35.0491 5.44153C34.8257 5.55543 34.6391 5.74211 34.5252 5.96544C34.3583 6.29275 34.3482 6.47916 34.3482 9.27013C34.3482 12.1716 34.352 12.2347 34.5453 12.5786C34.7653 12.97 35.245 13.2627 35.6666 13.2627C36.1027 13.2627 36.609 12.9518 36.808 12.5618C36.9753 12.234 36.9848 12.0521 36.9813 9.24517C36.9771 5.89689 36.9723 5.86964 36.3176 5.47334C35.8968 5.21864 35.5053 5.20879 35.0491 5.44153ZM8.59399 5.44153C8.37067 5.55543 8.18399 5.74211 8.07008 5.96544C7.90309 6.29275 7.89324 6.47714 7.89509 9.23814C7.89685 11.9195 7.91091 12.1947 8.06349 12.5307C8.26458 12.9735 8.55981 13.1823 9.06544 13.2394C9.59235 13.2987 10.1182 13.022 10.353 12.5618C10.5202 12.234 10.5297 12.0521 10.5262 9.24517C10.5221 5.89689 10.5172 5.86964 9.86252 5.47334C9.4417 5.21864 9.05024 5.20879 8.59399 5.44153ZM12.7286 13.7241C12.4516 14.3166 11.5839 15.1844 10.9913 15.4614L10.5299 15.6772V17.9012C10.5299 19.9567 10.5164 20.1514 10.353 20.472C10.154 20.8619 9.64763 21.1728 9.21151 21.1728C8.7754 21.1728 8.26906 20.8619 8.07008 20.472C7.9066 20.1514 7.89315 19.9567 7.89315 17.9012V15.6772L7.44087 15.4625C6.89568 15.2036 6.1466 14.5379 5.91351 14.1052C5.82017 13.9319 5.69958 13.79 5.64562 13.79C5.42923 13.79 4.48027 14.4944 4.00901 15.005C1.82334 17.3727 2.29408 20.9971 5.02458 22.8233C6.03646 23.5002 6.85376 23.7252 8.59628 23.8068C9.69817 23.8584 10.1661 23.9175 10.5446 24.0526C12.7423 24.8377 13.7607 27.3465 12.7541 29.4958C12.3316 30.3976 11.3429 31.2342 10.3101 31.5634C10.1651 31.6096 9.39389 31.6787 8.59628 31.717C6.87538 31.7997 6.05976 32.0228 5.04541 32.6886C4.43369 33.0901 3.71141 33.783 3.5075 34.1641L3.40458 34.3564H6.4434C9.31549 34.3564 9.5012 34.3661 9.82903 34.5333C10.219 34.7323 10.5299 35.2386 10.5299 35.6748C10.5299 36.0964 10.2372 36.5761 9.84582 36.7961C9.49918 36.9909 9.45612 36.9931 6.05747 36.9931H2.61972L2.62121 37.2348C2.62429 37.7201 2.88954 38.717 3.1758 39.3197C3.77214 40.5748 4.8902 41.5835 6.22525 42.0706L6.88241 42.3105L15.5836 42.3356C25.027 42.363 24.9177 42.3677 25.9547 41.8819C27.0204 41.3826 28.0196 40.3678 28.5578 39.2381C28.772 38.7885 28.8668 38.4467 29.1253 37.1909L29.166 36.9931H27.0075C25.0177 36.9931 24.8219 36.9793 24.5022 36.8162C24.1122 36.6172 23.8014 36.1109 23.8014 35.6748C23.8014 35.2386 24.1122 34.7323 24.5022 34.5333C24.8277 34.3673 25.0164 34.3564 27.5771 34.3564H30.3053L30.9921 33.6753C32.4486 32.2309 33.8116 31.724 36.2458 31.7212C38.2015 31.719 39.2792 31.3931 40.4297 30.4558C40.8593 30.1058 41.5553 29.2905 41.5553 29.1371C41.5553 29.1073 40.7627 29.083 39.7939 29.083C38.2021 29.083 37.9992 29.0659 37.6858 28.906C37.2958 28.7071 36.985 28.2007 36.985 27.7646C36.985 27.3285 37.2958 26.8222 37.6858 26.6232C38.0056 26.46 38.2013 26.4462 40.2008 26.4462H42.369L42.3069 25.8974C42.0839 23.9269 40.5581 22.1723 38.4791 21.4958C38.1165 21.3779 37.632 21.2576 37.4024 21.2287L36.985 21.1761V21.969C36.985 22.5901 36.9466 22.8369 36.808 23.1087C36.609 23.4987 36.1027 23.8095 35.6666 23.8095C35.2305 23.8095 34.7241 23.4987 34.5252 23.1087C34.3864 22.8365 34.3482 22.5901 34.3482 21.9645C34.3482 21.4012 34.316 21.1586 34.2384 21.1376C34.1779 21.1212 33.9038 21.0658 33.629 21.0143C32.4585 20.7953 31.3411 20.1795 30.3681 19.2172L29.6794 18.5361H27.2642C25.0172 18.5361 24.8249 18.5238 24.5022 18.3592C24.1122 18.1602 23.8014 17.6538 23.8014 17.2177C23.8014 16.7816 24.1122 16.2753 24.5022 16.0763C24.8157 15.9163 25.0186 15.8994 26.6146 15.8994H28.3801L28.1185 15.5192C27.4573 14.5582 26.2851 13.7504 25.102 13.4404C24.5028 13.2834 24.0809 13.272 18.7025 13.2675L12.9444 13.2627L12.7286 13.7241ZM20.4825 16.0806C21.0058 16.3569 21.1646 16.7694 21.1646 17.8519V18.7569L21.6261 18.9683C22.1954 19.2292 23.0811 20.1008 23.3533 20.668C23.7517 21.4983 23.7993 21.8764 23.8003 24.227L23.8014 26.4462H25.9142C27.8584 26.4462 28.0548 26.4604 28.374 26.6232C28.7639 26.8222 29.0748 27.3285 29.0748 27.7646C29.0748 28.2007 28.7639 28.7071 28.374 28.906C28.0534 29.0695 27.8587 29.083 25.8032 29.083H23.5792L23.3634 29.5444C23.0864 30.1369 22.2186 31.0047 21.6261 31.2817L21.1646 31.4975V35.0398C21.1646 38.4166 21.1564 38.5984 20.9877 38.929C20.7887 39.319 20.2824 39.6298 19.8463 39.6298C19.4102 39.6298 18.9038 39.319 18.7048 38.929C18.5362 38.5984 18.5279 38.4162 18.5276 35.0411L18.5273 31.5L17.9564 31.2047C16.9826 30.7012 16.2236 29.6859 15.9893 28.5733C15.8569 27.9446 15.8569 22.3112 15.9893 21.6825C16.2209 20.5826 17.1124 19.4202 18.0665 18.974L18.5279 18.7583V17.8527C18.5279 16.7534 18.6858 16.3533 19.2288 16.0763C19.6618 15.8554 20.0584 15.8567 20.4825 16.0806ZM19.2288 21.3497C19.0054 21.4636 18.8188 21.6503 18.7048 21.8736C18.538 22.2006 18.5279 22.3875 18.5279 25.1344C18.5279 27.9903 18.5319 28.0553 18.725 28.3989C19.0881 29.0451 19.8308 29.2511 20.4806 28.8859C21.1516 28.5088 21.1652 28.4337 21.1609 25.1094C21.1568 21.8102 21.1509 21.7772 20.4973 21.3815C20.0765 21.1268 19.685 21.117 19.2288 21.3497Z" fill="#2C5282"/>
</svg>
