<svg width="102" height="82" viewBox="0 0 102 82" fill="none" xmlns="http://www.w3.org/2000/svg">
<path fill-rule="evenodd" clip-rule="evenodd" d="M25.9837 40.8086C12.2786 62.7033 1.03599 80.7034 1.00008 80.8087C0.957111 80.934 18.2029 81 51 81C83.7971 81 101.043 80.934 101 80.8087C100.88 80.4582 51.0999 1 51 1C50.946 1 39.6887 18.9139 25.9837 40.8086ZM72.3891 42.7977L93.68 76.8245L72.34 76.8738C60.6029 76.901 41.3971 76.901 29.66 76.8738L8.31996 76.8245L29.6109 42.7977C41.3209 24.0828 50.946 8.77093 51 8.77093C51.054 8.77093 60.6791 24.0828 72.3891 42.7977Z" fill="#2C5282" stroke="#2C5282"/>
</svg>
