<svg width="80" height="80" viewBox="0 0 80 80" fill="none" xmlns="http://www.w3.org/2000/svg">
<path fill-rule="evenodd" clip-rule="evenodd" d="M57.9847 0.128485C39.7345 0.750814 24.8275 4.52137 15.1532 10.9621C12.0424 13.0334 8.71607 16.0273 6.7914 18.4887C1.60642 25.1197 -0.627149 33.1645 0.150879 42.4064C0.650962 48.3466 2.29487 54.9183 4.90566 61.4131C5.29709 62.3872 5.6174 63.2737 5.6174 63.3833C5.6174 63.493 5.32976 64.1995 4.97819 64.9534C3.87313 67.3231 2.22937 71.5015 1.30956 74.2793C0.46478 76.8307 0.432577 76.9862 0.611569 77.6482C0.98878 79.0425 2.41587 79.8906 3.77121 79.5255C4.85204 79.2345 5.33211 78.5985 6.00743 76.5633C6.89473 73.8897 7.707 71.7415 8.76625 69.2678L9.71467 67.053L11.2224 67.7572C17.5994 70.7362 23.9299 72.5911 30.3949 73.3754C32.8492 73.6732 38.1922 73.7143 40.3997 73.4525C53.8972 71.8514 63.524 64.3242 68.11 51.7859C69.3835 48.3037 70.0812 45.08 70.7995 39.358C73.0025 21.8096 75.9587 9.82781 79.2397 5.15058C79.5939 4.64565 79.9241 3.98314 79.9735 3.67847C80.1381 2.66439 79.5198 1.44505 78.5997 0.9692C77.9453 0.630757 73.936 0.30779 68.1115 0.123952C62.8481 -0.0420652 62.987 -0.0420652 57.9847 0.128485ZM68.7562 5.34786C68.7184 5.38553 66.8953 6.32286 64.7047 7.43089C58.2862 10.6771 51.1606 14.9104 45.8096 18.6563C44.4002 19.643 43.2116 20.4149 43.1685 20.3718C43.0291 20.2322 43.4711 17.4641 43.8538 16.081C44.0585 15.3417 44.2267 14.4661 44.2278 14.1352C44.2315 12.9518 43.478 12.0006 42.2735 11.6681C41.2051 11.3731 39.762 12.1002 39.3257 13.1533C38.518 15.1033 37.8258 19.3466 37.818 22.3968L37.8123 24.5853L35.9896 26.0704C31.8117 29.4744 26.0961 34.8957 22.1458 39.2017L20.6399 40.8431L20.6324 39.4362C20.6129 35.792 21.3123 31.6481 22.6795 27.3073C23.105 25.9562 23.1334 25.7417 22.9684 25.1283C22.5949 23.7413 21.1844 22.8953 19.8462 23.2556C18.7787 23.5431 18.2495 24.1956 17.6897 25.9141C15.5364 32.526 14.9401 39.2411 15.9603 45.3928L16.1445 46.5035L15.4365 47.425C14.3943 48.7816 11.3015 53.3979 10.0799 55.4204C9.49566 56.3877 8.97135 57.1791 8.91476 57.1791C8.85817 57.1791 8.54068 56.3552 8.20927 55.3483C4.85344 45.1519 4.33648 36.6022 6.64805 29.5285C10.1078 18.9411 20.5386 11.4747 36.8897 7.88141C43.0914 6.51873 48.3452 5.84857 56.5011 5.38053C57.8275 5.30424 68.8289 5.27501 68.7562 5.34786ZM70.6718 12.1833C68.8145 18.351 67.281 26.2208 65.9552 36.3879C64.6926 46.0709 64.0302 48.7072 61.6547 53.5054C57.4919 61.914 50.4224 66.8168 40.4841 68.1875C38.2263 68.4987 33.5578 68.5098 31.0135 68.2097C26.4511 67.6717 21.9447 66.5245 17.3418 64.7292C14.9964 63.8144 12.183 62.486 12.183 62.2932C12.183 61.5191 19.5159 50.1444 20.0151 50.1444C20.104 50.1444 21.104 50.4224 22.2375 50.7619C27.2234 52.2559 31.4122 52.9286 36.5925 53.0669C40.1641 53.1623 43.5854 52.9488 44.4549 52.5764C45.6133 52.0801 46.2817 50.6906 45.9289 49.5131C45.695 48.7322 44.758 47.8543 44.0086 47.7136C43.7049 47.6567 42.6594 47.6878 41.6853 47.783C37.0113 48.2393 31.2431 47.7288 25.9238 46.388C23.0584 45.6656 23.1503 45.9743 25.1274 43.7129C28.6975 39.6293 33.6488 34.8206 38.2111 31.0059C39.3288 30.0713 40.3643 29.2027 40.5122 29.0755C40.7525 28.869 40.9853 28.9116 42.7008 29.4772C45.9097 30.5349 49.3447 31.08 52.7042 31.0649C56.2222 31.0487 56.9923 30.8355 57.8047 29.6515C58.1064 29.2118 58.1596 28.967 58.1094 28.2488C58.0326 27.1514 57.5598 26.4534 56.6073 26.0321C55.9817 25.7554 55.7011 25.7323 54.0917 25.8252C53.0954 25.8825 51.4942 25.8589 50.5333 25.7726C48.7019 25.6082 45.9448 25.1337 45.9553 24.9849C45.9856 24.552 55.9621 18.1169 60.8782 15.3594C63.4187 13.9342 71.1636 9.96304 71.2446 10.044C71.2748 10.0742 71.017 11.0368 70.6718 12.1833Z" fill="#2C5282"/>
</svg>
