<svg width="89" height="87" viewBox="0 0 89 87" fill="none" xmlns="http://www.w3.org/2000/svg">
<path fill-rule="evenodd" clip-rule="evenodd" d="M28.987 56.8565C18.0229 73.2775 9.02883 86.7776 9.00011 86.8566C8.96573 86.9505 22.7623 87 49 87C75.2377 87 89.0344 86.9505 89 86.8566C88.9042 86.5936 49.0799 27 49 27C48.9569 27 39.951 40.4355 28.987 56.8565ZM66.1113 58.3483L83.1441 83.8684L66.0721 83.9054C56.6824 83.9258 41.3177 83.9258 31.928 83.9054L14.856 83.8684C14.856 83.8684 19.952 76.027 23.3724 71.1083C24.5821 69.3688 27.1252 65.7619 27.1252 65.7619L31.8888 58.3483C41.2568 44.3121 48.9569 32.8282 49 32.8282C49.0432 32.8282 56.7433 44.3121 66.1113 58.3483Z" fill="#4299E1"/>
<path fill-rule="evenodd" clip-rule="evenodd" d="M18.8863 1.01931C14.6977 1.3394 10.0883 2.12242 7.12833 3.01647C4.35842 3.85332 2.15033 5.32215 1.37897 6.84127L1.04346 7.50217L1 35.5418C0.966449 57.2188 0.998933 63.7455 1.14259 64.3045C1.41344 65.357 2.83766 66.8147 4.32228 67.5586C7.50334 69.1526 19.6058 70.7417 19.6058 70.7417C19.6058 70.7417 24.4794 65.675 27.1252 65.3916C25.4879 63.3279 25.682 68.6041 27.1252 65.7619C27.0529 65.8645 27.1252 65.3916 27.1252 65.7619C27 65.5 26.7224 64.9342 27.1252 65.7619C27.1252 65.3916 22.0311 68.4645 27.1252 65.7619C26.8736 65.2448 26.2158 66.3897 27.1252 65.7619V65.3916C26.3586 65.6786 27.3991 65.2239 27.1252 65.7619C26.0828 65.0498 26.585 66.8232 27.1252 65.7619C24.5227 67.5586 8.62518 65.087 6.94884 62.9533L5.47962 63.3279L6.06874 62.9533C7.11674 62.2868 7.48549 61.0453 6.94884 59.9909C6.67494 59.4529 6.27081 59.1325 5.50418 58.8456L5.08479 58.6886V35.9475C5.08479 23.4399 5.14274 13.2065 5.21335 13.2065C5.28411 13.2065 5.74742 13.3551 6.24275 13.5367C8.78528 14.4685 13.3482 15.3414 18.1238 15.8093C20.9797 16.0892 30.9938 16.0879 33.8316 15.8074C38.6473 15.3314 42.6037 14.6005 45.3177 13.6855C46.0991 13.422 46.7681 13.2065 46.8046 13.2065C46.8409 13.2065 46.8709 14.9961 46.8712 17.1835C46.8717 20.8444 46.8955 21.2013 47.1695 21.6748C47.9999 23.1099 49.9783 22.9559 50.721 21.3983C50.9616 20.8939 50.9877 20.2111 50.9879 14.4303C50.9882 9.89847 50.9343 7.82788 50.8043 7.36012C50.5269 6.36339 49.0523 4.87882 47.6331 4.16779C44.5048 2.60014 39.2561 1.4898 32.6593 1.00003C30.0384 0.80544 21.5278 0.817331 18.8863 1.01931ZM31.8516 5.33645C37.7922 5.73656 43.1218 6.77009 45.6506 8.01235L46.4893 8.42451L45.5743 8.87941C40.3081 11.4976 26.0129 12.4998 14.9212 11.0283C11.3879 10.5595 7.4344 9.53452 5.99981 8.71535L5.46605 8.41053L6.30482 8.00544C8.78573 6.80705 14.1984 5.73222 19.6488 5.35541C22.5273 5.15648 29.0293 5.14636 31.8516 5.33645ZM22.0311 55.9023C21.3256 56.2685 20.9463 56.9792 20.9457 57.9362C20.9451 58.6309 21.0113 58.788 21.5371 59.3422L22.1293 59.966H29.8261L30.4183 59.3422C30.9441 58.788 31.0103 58.6309 31.0097 57.9362C31.0091 56.9667 30.6232 56.2577 29.8996 55.8958C29.1064 55.4993 22.7976 55.5044 22.0311 55.9023ZM14.6925 56.2903C9.66583 57.0062 8.89737 57.3949 8.89737 59.2219C8.89737 59.8114 8.98933 60.0652 9.36738 60.5189C9.9475 61.215 10.6036 61.4252 11.5883 61.2308C11.9955 61.1503 13.5405 60.911 15.0217 60.6992C17.9329 60.2829 18.3243 60.1294 18.7207 59.2494C19.2043 58.1757 18.9066 57.0055 18.0019 56.4245C17.4651 56.0795 16.4595 56.0387 14.6925 56.2903Z" fill="#4299E1"/>
</svg>
