<svg width="80" height="81" viewBox="0 0 80 81" fill="none" xmlns="http://www.w3.org/2000/svg">
<path fill-rule="evenodd" clip-rule="evenodd" d="M50.8138 2.62882L37.8247 5.24197L37.7845 16.0115L37.7443 26.7808L47.7219 39.2744L57.6995 51.768L63.6067 51.7761L69.5139 51.7843L74.757 43.9207L80 36.057V23.3423V10.6277L72.0199 5.30613C67.6308 2.37921 63.9865 -0.00842835 63.9213 2.23636e-05C63.8562 0.00862957 57.9577 1.19157 50.8138 2.62882ZM60.2677 5.8922C60.2601 6.04275 59.5031 9.12382 58.5854 12.7388L56.917 19.3116L49.6792 21.1321L42.4413 22.9526V16.0298V9.10692L51.0094 7.37827C55.7219 6.42757 59.7358 5.64259 59.9296 5.63399C60.1713 5.62319 60.2773 5.7041 60.2677 5.8922ZM70.3626 9.83508L75.3052 13.1326V23.8906V34.6487L71.1574 40.8691L67.0097 47.0894H64.1152H61.2206V34.334V21.5784L63.1202 13.9813C64.5086 8.42836 65.0737 6.40457 65.2199 6.46075C65.3299 6.503 67.6441 8.02131 70.3626 9.83508ZM17.1865 12.2756C11.9466 14.0299 7.61873 15.5061 7.56896 15.5559C7.5192 15.6057 10.3272 18.4957 13.8089 21.9781L20.1394 28.3101H23.5061H26.8729L30.1568 25.0234L33.4407 21.7367L30.273 15.3989C28.5308 11.9132 27.0172 9.0667 26.9095 9.07343C26.8017 9.08031 22.4264 10.5212 17.1865 12.2756ZM26.1658 17.8249L27.646 20.7983L26.2441 22.2068L24.8422 23.6152H23.5101H22.1782L19.163 20.603L16.148 17.591L20.1788 16.2335C22.3957 15.487 24.3167 14.8706 24.4477 14.8639C24.605 14.8557 25.1876 15.8597 26.1658 17.8249ZM56.5258 33.4938V42.7465L50.4195 35.114C47.0612 30.916 44.3551 27.4389 44.4061 27.3871C44.4569 27.3353 47.1871 26.6127 50.4731 25.7814C53.7591 24.9501 56.4652 24.2636 56.4867 24.2556C56.5081 24.2476 56.5258 28.4049 56.5258 33.4938ZM23.3489 37.8315L10.5946 42.9423L5.24376 50.9929C2.2253 55.5345 -0.0598386 59.1214 0.00119435 59.2221C0.0608188 59.3204 3.59415 64.0603 7.853 69.7553L15.5965 80.1098H33.5385H51.4803L54.1886 69.2691L56.897 58.4282L46.6017 45.5602C40.9393 38.4825 36.2607 32.6983 36.2048 32.7063C36.149 32.7141 30.3638 35.0205 23.3489 37.8315ZM30.531 48.6592C29.5142 53.7401 28.6302 57.9832 28.5665 58.088C28.1774 58.7295 16.8721 73.6935 16.7766 73.6935C16.676 73.6935 5.82373 59.2753 5.69744 58.9739C5.67225 58.9137 7.44111 56.1555 9.62827 52.8445L13.6048 46.8246L22.8197 43.1301C27.8878 41.0982 32.1122 39.4324 32.207 39.4284C32.3131 39.424 31.6658 42.988 30.531 48.6592ZM43.3602 49.0043C46.6419 53.1131 49.3271 56.511 49.3271 56.5552C49.3271 56.5994 45.8164 56.6356 41.5256 56.6356H33.7244L35.291 48.8012C36.7765 41.3731 36.8716 40.9816 37.1255 41.2503C37.2727 41.4063 40.0784 44.8955 43.3602 49.0043ZM49.572 68.3336L47.8208 75.3367L34.6449 75.3768L21.469 75.4167L26.751 68.3736L32.0331 61.3304H41.6781H51.323L49.572 68.3336Z" fill="#2C5282"/>
</svg>
