<svg width="63" height="80" viewBox="0 0 63 80" fill="none" xmlns="http://www.w3.org/2000/svg">
<path fill-rule="evenodd" clip-rule="evenodd" d="M30.2248 0.166916C28.7586 0.588072 18.4998 11.7011 13.1951 18.6149C3.86282 30.7779 -0.461544 40.5032 0.038906 48.2019C0.57189 56.401 3.33017 63.3982 8.32224 69.2154C13.2314 74.936 19.6575 78.5555 27.1065 79.7954C28.9961 80.11 34.1976 80.051 36.1803 79.6926C45.4708 78.013 53.3583 72.3266 58.1963 63.8201C60.7793 59.2785 62.3003 53.9753 62.6757 48.2019C63.3187 38.3091 55.9383 24.9059 40.5832 8.08059C36.0327 3.09473 33.2411 0.387794 32.4118 0.157597C31.6449 -0.055433 30.9888 -0.0526536 30.2248 0.166916ZM33.2545 9.99034C36.9083 13.7296 41.8618 19.5262 45.1649 23.928C51.8679 32.8611 55.5324 40.2191 55.9862 45.6557C56.1893 48.0868 55.5188 52.7522 54.5508 55.6455C53.8447 57.7556 52.1455 61.1161 50.8722 62.9209C49.4662 64.9137 46.4092 67.9524 44.5184 69.2366C37.302 74.1383 28.6059 74.7249 20.8559 70.833C17.7472 69.2718 14.0064 65.988 11.8424 62.9209C10.5691 61.1161 8.86993 57.7556 8.16381 55.6455C7.19577 52.7522 6.52529 48.0868 6.72835 45.6557C7.34439 38.2768 14.0127 27.1618 25.6979 14.0368C27.7837 11.6938 31.1904 8.15106 31.3573 8.15106C31.4122 8.15106 32.266 8.97882 33.2545 9.99034ZM13.9338 42.7939C13.081 43.1812 12.2835 44.1506 12.0966 45.0267C11.9009 45.9441 12.1406 48.8645 12.5565 50.6332C13.5819 54.9914 15.3624 58.563 18.0863 61.726C19.3902 63.2399 19.9688 63.5742 21.2845 63.5746C23.0962 63.5751 24.4314 62.4944 24.6134 60.8804C24.7414 59.7439 24.4081 58.8614 23.4054 57.6828C20.6849 54.4844 19.1732 50.9245 18.6955 46.5903C18.5011 44.8279 18.4118 44.4798 18.0072 43.9053C17.0921 42.6062 15.3772 42.1383 13.9338 42.7939Z" fill="#2C5282"/>
</svg>
